<?xml version="1.0" encoding="utf-8"?>
<!-- Generator: Adobe Illustrator 16.0.0, SVG Export Plug-In . SVG Version: 6.00 Build 0)  -->
<!DOCTYPE svg PUBLIC "-//W3C//DTD SVG 1.1//EN" "http://www.w3.org/Graphics/SVG/1.1/DTD/svg11.dtd">
<svg version="1.1" id="图层_1" xmlns="http://www.w3.org/2000/svg" xmlns:xlink="http://www.w3.org/1999/xlink" x="0px" y="0px"
	 width="68px" height="68px" viewBox="0 0 68 68" enable-background="new 0 0 68 68" xml:space="preserve">
<g>
	<g>
		<g>
			<g>
				<g>
					<defs>
						<rect id="SVGID_1_" x="8.252" y="7.87" width="53.268" height="49.697"/>
					</defs>
					<clipPath id="SVGID_2_">
						<use xlink:href="#SVGID_1_"  overflow="visible"/>
					</clipPath>
					<path clip-path="url(#SVGID_2_)" d="M36.471,8.75c1.075,1.076,1.075,2.151,0,3.226L12.285,36.164
						c-1.075,1.075-2.151,1.075-3.226,0c-1.076-1.075-1.076-2.151,0-3.226L33.245,8.751C34.32,7.675,35.396,7.675,36.471,8.75
						L36.471,8.75z"/>
				</g>
			</g>
			<g>
				<g>
					<defs>
						<rect id="SVGID_3_" x="8.252" y="7.87" width="53.268" height="49.697"/>
					</defs>
					<clipPath id="SVGID_4_">
						<use xlink:href="#SVGID_3_"  overflow="visible"/>
					</clipPath>
					<path clip-path="url(#SVGID_4_)" d="M60.675,36.162c-1.075,1.076-2.151,1.076-3.226,0L33.263,11.976
						c-1.075-1.075-1.075-2.15,0-3.226c1.076-1.075,2.151-1.075,3.226,0l24.186,24.186C61.75,34.012,61.75,35.086,60.675,36.162
						L60.675,36.162z"/>
				</g>
			</g>
		</g>
		<path d="M14.324,57.366c-1.521,0-2.281-0.76-2.281-2.281V27.626c0-1.521,0.76-2.281,2.281-2.281c1.52,0,2.281,0.76,2.281,2.281
			v27.458C16.604,56.605,15.844,57.366,14.324,57.366L14.324,57.366z"/>
		<path d="M53.051,58.412c-1.034,0-1.551-0.761-1.551-2.281V28.671c0-1.521,0.517-2.281,1.551-2.281c1.034,0,1.551,0.76,1.551,2.281
			v27.458C54.602,57.65,54.085,58.412,53.051,58.412L53.051,58.412z"/>
		<path d="M12.074,55.131c0-1.566,0.658-2.349,1.976-2.349h15.229c1.316,0,1.975,0.783,1.975,2.349c0,1.567-0.659,2.35-1.975,2.35
			H14.05C12.732,57.48,12.074,56.698,12.074,55.131L12.074,55.131z"/>
		<path d="M26.688,57.366c-1.042,0-1.563-0.76-1.563-2.281v-22.79c0-1.521,0.521-2.281,1.563-2.281s1.563,0.76,1.563,2.281v22.789
			C28.25,56.605,27.729,57.366,26.688,57.366L26.688,57.366z"/>
	</g>
	<g>
		<rect x="31.753" y="30.293" fill="#B6F5FF" width="16.51" height="24.012"/>
		<path d="M39.978,35.61c1.163,0,2.106-0.883,2.106-1.97s-0.943-1.968-2.106-1.968c-1.162,0-2.046,0.881-2.046,1.968
			C37.932,34.729,38.815,35.61,39.978,35.61L39.978,35.61z"/>
		<path d="M43.068,36.516H36.72c0,0-0.923-0.109-1.212,0.657v5.939c0,0,0.025,0.607,0.667,0.607c0,0,0.714,0.004,0.714-0.641v-3.592
			c0,0,0.396-0.817,0.693,0.041l0.004,12.738c0,0-0.025,0.652,0.667,0.652l0.718,0.01c0,0,0.678-0.007,0.678-0.663v-5.913
			c0,0,0.026-0.335,0.385-0.335c0,0,0.318,0.12,0.318,0.349v5.953c0,0,0,0.598,0.693,0.598h0.696c0,0,0.693-0.041,0.693-0.598
			V39.476c0,0,0.249-0.759,0.692-0.011l0.023,3.64c0,0-0.162,0.629,0.713,0.629c0.658,0,0.637-0.601,0.637-0.601l0.008-5.959
			C44.507,37.172,44.165,36.516,43.068,36.516L43.068,36.516z"/>
		<g>
			<polygon points="39.257,29.537 40.757,29.537 40.757,24.024 43.758,26.109 43.758,24.635 40.008,22.027 36.257,24.635 
				36.257,26.109 39.257,24.024 			"/>
			<path d="M40.757,29.662h-1.5c-0.069,0-0.125-0.056-0.125-0.125v-5.273l-2.804,1.948c-0.039,0.027-0.088,0.029-0.129,0.008
				c-0.041-0.021-0.067-0.064-0.067-0.111v-1.473c0-0.041,0.02-0.079,0.054-0.103l3.751-2.607c0.043-0.03,0.1-0.03,0.143,0
				l3.75,2.607c0.034,0.023,0.054,0.063,0.054,0.103v1.474c0,0.046-0.026,0.089-0.067,0.111c-0.042,0.021-0.09,0.019-0.129-0.008
				l-2.805-1.948v5.273C40.882,29.605,40.826,29.662,40.757,29.662z M39.382,29.412h1.25v-5.387c0-0.046,0.026-0.089,0.067-0.111
				c0.042-0.021,0.091-0.02,0.129,0.008l2.805,1.948v-1.169l-3.625-2.521l-3.626,2.521v1.169l2.804-1.948
				c0.039-0.028,0.087-0.029,0.129-0.008c0.041,0.021,0.067,0.064,0.067,0.111V29.412L39.382,29.412z"/>
		</g>
		<g>
			<polygon points="40.757,55.131 39.257,55.131 39.257,60.645 36.257,58.559 36.257,60.034 40.008,62.64 43.758,60.034 
				43.758,58.559 40.757,60.645 			"/>
			<path d="M40.008,62.765c-0.025,0-0.05-0.007-0.071-0.022l-3.75-2.606c-0.034-0.023-0.054-0.063-0.054-0.104v-1.475
				c0-0.046,0.026-0.089,0.067-0.111c0.042-0.021,0.091-0.019,0.129,0.008l2.803,1.949v-5.274c0-0.069,0.056-0.125,0.125-0.125h1.5
				c0.069,0,0.125,0.056,0.125,0.125v5.274l2.805-1.949c0.039-0.027,0.087-0.029,0.129-0.008c0.041,0.021,0.067,0.064,0.067,0.111
				v1.475c0,0.041-0.02,0.079-0.054,0.104l-3.75,2.606C40.058,62.757,40.033,62.765,40.008,62.765z M36.382,59.967l3.625,2.52
				l3.625-2.52v-1.17l-2.805,1.949c-0.039,0.027-0.087,0.029-0.129,0.008c-0.041-0.021-0.067-0.064-0.067-0.111v-5.388h-1.25v5.388
				c0,0.046-0.026,0.089-0.067,0.111c-0.042,0.021-0.091,0.019-0.129-0.008l-2.803-1.949V59.967z"/>
		</g>
	</g>
</g>
</svg>
