<?xml version="1.0" encoding="utf-8"?>
<!-- Generator: Adobe Illustrator 16.0.0, SVG Export Plug-In . SVG Version: 6.00 Build 0)  -->
<!DOCTYPE svg PUBLIC "-//W3C//DTD SVG 1.1//EN" "http://www.w3.org/Graphics/SVG/1.1/DTD/svg11.dtd">
<svg version="1.1" id="图层_1" xmlns="http://www.w3.org/2000/svg" xmlns:xlink="http://www.w3.org/1999/xlink" x="0px" y="0px"
	 width="68px" height="68px" viewBox="0 0 68 68" enable-background="new 0 0 68 68" xml:space="preserve">
<g>
	<g>
		<g>
			<g>
				<g>
					<defs>
						<rect id="SVGID_1_" x="12.522" y="11.79" width="44.421" height="44.421"/>
					</defs>
					<clipPath id="SVGID_2_">
						<use xlink:href="#SVGID_1_"  overflow="visible"/>
					</clipPath>
					<path clip-path="url(#SVGID_2_)" d="M56.543,38.046l-4.763-4.762c-0.238-0.238-0.552-0.36-0.866-0.36
						c-0.311,0-0.625,0.122-0.866,0.36L35.327,48.005c-0.178,0.179-0.287,0.4-0.335,0.631h-0.005l-0.893,6.237l-0.011,0.002
						l0.005,0.036l-0.092,0.639c-0.016,0.046-0.027,0.097-0.027,0.146c0,0.192,0.141,0.346,0.331,0.368v0.017l0.038-0.008
						c0.005,0,0.005,0.003,0.005,0.003c0.054,0,0.108-0.011,0.152-0.03l6.689-1.204v-0.005c0.238-0.043,0.46-0.157,0.639-0.336
						L56.544,39.78C57.02,39.3,57.02,38.523,56.543,38.046L56.543,38.046z M40.201,52.199l-3.004,0.542l0.449-3.136l13.268-13.268
						l2.576,2.576L40.201,52.199z"/>
				</g>
			</g>
			<g>
				<g>
					<defs>
						<rect id="SVGID_3_" x="12.522" y="11.79" width="44.421" height="44.421"/>
					</defs>
					<clipPath id="SVGID_4_">
						<use xlink:href="#SVGID_3_"  overflow="visible"/>
					</clipPath>
					<path clip-path="url(#SVGID_4_)" d="M43.283,38.133c-1.905-1.266-4.026-2.235-6.316-2.787c4.449-1.83,7.599-6.2,7.599-11.301
						c0-6.741-5.488-12.223-12.226-12.223c-6.744,0-12.226,5.482-12.226,12.223c0,5.101,3.145,9.471,7.593,11.301
						c-8.697,2.095-15.192,9.92-15.192,19.256c0,0.763,0.623,1.385,1.386,1.385c0.769,0,1.385-0.622,1.385-1.385
						c0-9.403,7.653-17.054,17.054-17.054c3.274,0,6.327,0.947,8.93,2.555L43.283,38.133z M22.885,24.045
						c0-5.212,4.238-9.452,9.455-9.452c5.212,0,9.455,4.24,9.455,9.452S37.552,33.5,32.34,33.5
						C27.123,33.501,22.885,29.257,22.885,24.045L22.885,24.045z"/>
				</g>
			</g>
		</g>
		<path d="M55.46,53.379H45.285c-0.766,0-1.385,0.617-1.385,1.386c0,0.763,0.62,1.385,1.385,1.385H55.46
			c0.766,0,1.386-0.623,1.386-1.385C56.846,53.998,56.227,53.379,55.46,53.379L55.46,53.379z"/>
	</g>
	<polygon fill="#B6F5FF" points="40.285,52.116 37.281,52.657 37.73,49.521 50.998,36.253 53.574,38.83 	"/>
</g>
</svg>
