<?xml version="1.0" encoding="utf-8"?>
<!-- Generator: Adobe Illustrator 16.0.0, SVG Export Plug-In . SVG Version: 6.00 Build 0)  -->
<!DOCTYPE svg PUBLIC "-//W3C//DTD SVG 1.1//EN" "http://www.w3.org/Graphics/SVG/1.1/DTD/svg11.dtd">
<svg version="1.1" id="图层_1" xmlns="http://www.w3.org/2000/svg" xmlns:xlink="http://www.w3.org/1999/xlink" x="0px" y="0px"
	 width="68px" height="68px" viewBox="0 0 68 68" enable-background="new 0 0 68 68" xml:space="preserve">
<g>
	<rect x="23.877" y="17.465" fill="#B6F5FF" width="24" height="34"/>
	<g>
		<path d="M36.529,25.628c1.548,0,2.803-1.174,2.803-2.622s-1.255-2.621-2.803-2.621c-1.547,0-2.724,1.172-2.724,2.621
			C33.805,24.455,34.981,25.628,36.529,25.628L36.529,25.628z M35.103,14.385H37.1v-7.34l3.996,2.776V7.858l-4.994-3.471
			l-4.994,3.471v1.963l3.995-2.776V14.385L35.103,14.385z M23.114,52.347h25.977V16.381H23.114V52.347z M25.112,18.379h21.981V50.35
			H25.112V18.379z M54.502,5.391v57.947h3.373V5.391H54.502z M13.544,5.391v57.947h3.373V5.391H13.544z M40.167,26.497h-8.452
			c0,0-1.229-0.146-1.614,0.875v7.907c0,0,0.033,0.81,0.888,0.81c0,0,0.951,0.005,0.951-0.854v-4.783c0,0,0.528-1.088,0.922,0.055
			l0.006,16.959c0,0-0.033,0.869,0.889,0.869l0.956,0.014c0,0,0.903-0.01,0.903-0.883v-7.872c0,0,0.034-0.446,0.514-0.446
			c0,0,0.423,0.159,0.423,0.465v7.927c0,0,0,0.796,0.922,0.796h0.928c0,0,0.922-0.055,0.922-0.796V30.438
			c0,0,0.332-1.01,0.922-0.014l0.029,4.846c0,0-0.215,0.838,0.951,0.838c0.875,0,0.849-0.802,0.849-0.802l0.01-7.935
			C42.084,27.372,41.628,26.497,40.167,26.497L40.167,26.497z M37.1,54.343h-1.997v7.34l-3.994-2.776v1.963l4.993,3.47l4.994-3.47
			v-1.963L37.1,61.683V54.343z"/>
		<path d="M36.102,64.465c-0.025,0-0.05-0.007-0.071-0.021l-4.993-3.471c-0.034-0.023-0.054-0.063-0.054-0.104v-1.963
			c0-0.045,0.026-0.088,0.067-0.11c0.042-0.021,0.09-0.021,0.129,0.008l3.798,2.64v-7.101c0-0.069,0.056-0.125,0.125-0.125H37.1
			c0.069,0,0.125,0.056,0.125,0.125v7.101l3.801-2.64c0.039-0.028,0.086-0.028,0.129-0.008c0.041,0.021,0.066,0.063,0.066,0.11
			v1.963c0,0.041-0.02,0.08-0.054,0.104l-4.994,3.471C36.152,64.458,36.127,64.465,36.102,64.465z M31.234,60.804l4.868,3.384
			l4.869-3.384v-1.659l-3.8,2.641c-0.039,0.027-0.088,0.029-0.129,0.008s-0.067-0.064-0.067-0.111v-7.215h-1.747v7.215
			c0,0.047-0.026,0.09-0.067,0.111c-0.042,0.021-0.09,0.02-0.129-0.008l-3.798-2.641V60.804z M57.875,63.463h-3.373
			c-0.068,0-0.125-0.057-0.125-0.125V5.391c0-0.069,0.057-0.125,0.125-0.125h3.373C57.943,5.266,58,5.322,58,5.391v57.947
			C58,63.407,57.943,63.463,57.875,63.463z M54.627,63.213h3.123V5.516h-3.123V63.213z M16.917,63.463h-3.373
			c-0.069,0-0.125-0.057-0.125-0.125V5.391c0-0.069,0.056-0.125,0.125-0.125h3.373c0.069,0,0.125,0.056,0.125,0.125v57.947
			C17.042,63.407,16.985,63.463,16.917,63.463z M13.669,63.213h3.123V5.516h-3.123V63.213z M49.091,52.472H23.114
			c-0.069,0-0.125-0.056-0.125-0.125V16.381c0-0.069,0.056-0.125,0.125-0.125h25.977c0.069,0,0.125,0.056,0.125,0.125v35.967
			C49.216,52.417,49.16,52.472,49.091,52.472z M23.239,52.222h25.727V16.506H23.239V52.222z M47.093,50.474H25.112
			c-0.069,0-0.125-0.056-0.125-0.125v-31.97c0-0.069,0.056-0.125,0.125-0.125h21.981c0.069,0,0.125,0.056,0.125,0.125V50.35
			C47.218,50.418,47.162,50.474,47.093,50.474z M25.237,50.224h21.731v-31.72H25.237V50.224z M34.712,48.472
			c-0.001,0-0.001,0-0.002,0l-0.956-0.014c-0.314,0-0.565-0.095-0.743-0.279c-0.281-0.292-0.269-0.703-0.269-0.72l-0.004-16.933
			c-0.095-0.267-0.205-0.419-0.303-0.419c-0.134,0-0.298,0.237-0.37,0.373v4.753c0,0.775-0.704,0.979-1.076,0.979
			c-0.771,0-1-0.608-1.014-0.93V27.37c0-0.015,0.003-0.03,0.008-0.044c0.328-0.869,1.208-0.963,1.572-0.963
			c0.108,0,0.174,0.008,0.174,0.008l8.437-0.001c1.52,0,2.007,0.903,2.027,0.942c0.009,0.018,0.014,0.038,0.014,0.058l-0.01,7.935
			c0,0.012,0.01,0.387-0.252,0.658c-0.172,0.178-0.416,0.268-0.723,0.268c-0.445,0-0.761-0.117-0.938-0.346
			c-0.196-0.253-0.152-0.553-0.136-0.63l-0.03-4.797c-0.185-0.303-0.312-0.349-0.372-0.349c-0.133,0-0.254,0.224-0.301,0.349v17.08
			c0,0.68-0.68,0.899-1.039,0.921h-0.934c-1.036,0-1.048-0.912-1.048-0.921v-7.927c0-0.181-0.249-0.307-0.322-0.338
			c-0.326,0.014-0.362,0.297-0.365,0.33v7.862c0,0.789-0.671,1.004-1.026,1.008C34.713,48.472,34.712,48.472,34.712,48.472z
			 M32.436,29.858c0.226,0,0.405,0.199,0.546,0.606c0.004,0.013,0.007,0.027,0.007,0.041l0.004,16.96c0,0.007-0.007,0.329,0.2,0.543
			c0.129,0.133,0.319,0.201,0.563,0.201l0.956,0.014c0.048-0.001,0.778-0.029,0.778-0.758v-7.872
			c0.015-0.204,0.168-0.571,0.639-0.571c0.015,0,0.03,0.004,0.044,0.008c0.021,0.009,0.504,0.194,0.504,0.582v7.927
			c0,0.067,0.028,0.671,0.798,0.671H38.4c0.025-0.002,0.797-0.057,0.797-0.671V30.438c0-0.013,0.003-0.026,0.007-0.039
			c0.019-0.055,0.188-0.539,0.543-0.539c0.208,0,0.405,0.164,0.604,0.5c0.01,0.019,0.018,0.041,0.018,0.063l0.029,4.846
			c0,0.011,0,0.021-0.004,0.032c0,0.001-0.058,0.246,0.09,0.435c0.129,0.164,0.377,0.248,0.74,0.248c0.235,0,0.416-0.064,0.541-0.19
			c0.188-0.194,0.184-0.479,0.184-0.482l0.01-7.905c-0.085-0.138-0.551-0.783-1.792-0.783h-8.452
			c-0.018-0.001-0.072-0.007-0.159-0.007c-0.308,0-1.05,0.077-1.33,0.78v7.884c0.003,0.065,0.054,0.685,0.763,0.685
			c0.002,0,0.221-0.001,0.432-0.097c0.262-0.12,0.395-0.334,0.395-0.632v-4.783c0-0.019,0.004-0.038,0.013-0.055
			C31.855,30.34,32.099,29.858,32.436,29.858z M36.529,25.753c-1.598,0-2.849-1.207-2.849-2.747s1.251-2.746,2.849-2.746
			c1.616,0,2.928,1.231,2.928,2.746S38.145,25.753,36.529,25.753z M36.529,20.511c-1.458,0-2.599,1.096-2.599,2.496
			s1.142,2.497,2.599,2.497c1.477,0,2.678-1.12,2.678-2.497C39.207,21.631,38.005,20.511,36.529,20.511z M37.1,14.51h-1.997
			c-0.069,0-0.125-0.056-0.125-0.125v-7.1l-3.798,2.64c-0.039,0.027-0.087,0.03-0.129,0.008c-0.041-0.021-0.067-0.064-0.067-0.111
			V7.859c0-0.041,0.02-0.079,0.054-0.103l4.994-3.471c0.043-0.03,0.1-0.03,0.143,0l4.994,3.471c0.034,0.023,0.054,0.062,0.054,0.103
			v1.963c0,0.046-0.025,0.089-0.066,0.111c-0.043,0.021-0.09,0.019-0.129-0.008l-3.801-2.64v7.101
			C37.225,14.455,37.169,14.51,37.1,14.51z M35.229,14.26h1.748V7.045c0-0.046,0.025-0.089,0.066-0.111
			c0.042-0.021,0.091-0.019,0.129,0.008l3.801,2.64V7.924l-4.87-3.384l-4.869,3.384v1.658l3.798-2.64
			c0.039-0.027,0.088-0.029,0.129-0.008c0.041,0.021,0.067,0.064,0.067,0.111L35.229,14.26L35.229,14.26z"/>
	</g>
</g>
</svg>
