<?xml version="1.0" encoding="utf-8"?>
<!-- Generator: Adobe Illustrator 16.0.0, SVG Export Plug-In . SVG Version: 6.00 Build 0)  -->
<!DOCTYPE svg PUBLIC "-//W3C//DTD SVG 1.1//EN" "http://www.w3.org/Graphics/SVG/1.1/DTD/svg11.dtd">
<svg version="1.1" id="图层_1" xmlns="http://www.w3.org/2000/svg" xmlns:xlink="http://www.w3.org/1999/xlink" x="0px" y="0px"
	 width="68px" height="68px" viewBox="0 0 68 68" enable-background="new 0 0 68 68" xml:space="preserve">
<g>
	<g>
		<path fill="#B6F5FF" d="M33.79,29.146l-0.021,11.782l-9.93-5.738l0.021-11.776L33.79,29.146z"/>
		<g>
			<path d="M33.433,65.476l0.006-0.533L11.59,52.329l0.046-5.069l0.909,0.006l-0.039,4.536l20.938,12.094l0.039-4.023l0.908,0.007
				l-0.029,4.009l20.926-12.087l-0.039-4.536l0.908-0.006l0.047,5.069L34.349,64.942l-0.006,0.52l-0.449-0.253L33.433,65.476z"/>
			<path d="M33.433,65.851c-0.064,0-0.131-0.017-0.189-0.051c-0.114-0.068-0.187-0.193-0.186-0.328l0.004-0.313L11.403,52.653
				c-0.117-0.067-0.188-0.193-0.188-0.328l0.046-5.069c0.002-0.207,0.194-0.341,0.378-0.372l0.909,0.006
				c0.101,0,0.192,0.041,0.265,0.112c0.069,0.071,0.108,0.167,0.107,0.267l-0.037,4.317L33.075,63.25l0.033-3.38
				c0.002-0.207,0.187-0.354,0.379-0.372l0.908,0.007c0.1,0.001,0.194,0.041,0.266,0.112c0.068,0.071,0.107,0.167,0.106,0.266
				l-0.026,3.354l20.171-11.65l-0.037-4.317c-0.001-0.1,0.038-0.195,0.105-0.267c0.07-0.071,0.165-0.111,0.267-0.112l0.908-0.006
				c0.228,0.031,0.376,0.165,0.38,0.372l0.045,5.069c0.001,0.135-0.07,0.261-0.188,0.328l-21.67,12.507l-0.004,0.306
				c-0.002,0.132-0.073,0.254-0.188,0.32c-0.115,0.067-0.257,0.067-0.371,0.002l-0.265-0.148l-0.274,0.16
				C33.563,65.833,33.497,65.851,33.433,65.851z M11.967,52.113l21.659,12.505c0.087,0.05,0.148,0.133,0.175,0.228
				c0.062-0.016,0.125-0.016,0.187,0c0.024-0.095,0.088-0.177,0.174-0.228l21.668-12.505l-0.04-4.476l-0.16,0.001l0.036,4.16
				c0.001,0.135-0.07,0.261-0.188,0.328L34.551,64.212c-0.115,0.068-0.263,0.066-0.376,0c-0.116-0.068-0.188-0.193-0.188-0.327
				l0.027-3.634l-0.16-0.001l-0.035,3.648c0,0.134-0.072,0.256-0.188,0.322c-0.115,0.065-0.26,0.066-0.373-0.001L12.321,52.126
				c-0.117-0.067-0.188-0.193-0.188-0.328l0.036-4.16l-0.159-0.001L11.967,52.113z"/>
		</g>
		<g>
			<path d="M33.543,60.056l-22.148-12.75l12.042-6.908l0.449,0.786l-10.665,6.122l20.771,11.958L33.543,60.056z"/>
			<path d="M33.543,60.431c-0.065,0-0.13-0.017-0.188-0.05L11.206,47.63c-0.114-0.067-0.188-0.191-0.188-0.326
				c0-0.135,0.072-0.258,0.188-0.325l12.043-6.908c0.088-0.05,0.189-0.064,0.285-0.037c0.097,0.026,0.179,0.089,0.228,0.176
				l0.449,0.786c0.103,0.18,0.041,0.408-0.14,0.511l-10.101,5.797l20.206,11.632c0.178,0.103,0.24,0.331,0.139,0.51l-0.447,0.793
				c-0.049,0.087-0.131,0.151-0.229,0.177C33.61,60.426,33.575,60.431,33.543,60.431z M12.147,47.306l21.256,12.236l0.078-0.14
				L13.034,47.63c-0.116-0.067-0.188-0.191-0.188-0.325c0-0.134,0.072-0.258,0.188-0.325l10.34-5.936l-0.077-0.135L12.147,47.306z"
				/>
		</g>
		<g>
			<path d="M33.958,60.295l-0.416-0.24l0.293-0.507l-0.104-0.176l21.049-12.068l-11.178-6.434l0.455-0.793l12.549,7.227
				L33.958,60.295z M24.821,35.373l8.988,5.173l9.02-5.173L33.844,30.2v-1.046l10.813,6.226l-10.847,6.219l-10.813-6.226H24.821"/>
			<path d="M33.958,60.67c-0.063,0-0.129-0.017-0.188-0.05l-0.416-0.24c-0.18-0.104-0.239-0.333-0.138-0.512l0.186-0.318
				c-0.047-0.084-0.059-0.182-0.033-0.274c0.024-0.097,0.09-0.179,0.177-0.229l20.48-11.743l-10.61-6.108
				c-0.18-0.104-0.241-0.333-0.139-0.512l0.454-0.793c0.052-0.086,0.134-0.149,0.229-0.175c0.097-0.025,0.199-0.013,0.285,0.037
				l12.549,7.227c0.116,0.067,0.188,0.191,0.188,0.326c0,0.135-0.07,0.258-0.188,0.325L34.146,60.621
				C34.088,60.654,34.024,60.67,33.958,60.67z M34.21,59.531c0.003,0.07-0.014,0.142-0.051,0.205l-0.01,0.019l21.702-12.45
				l-11.655-6.714l-0.082,0.143l10.854,6.247c0.116,0.067,0.188,0.191,0.188,0.326c0,0.135-0.07,0.258-0.188,0.325L34.21,59.531z
				 M33.81,41.974c-0.064,0-0.129-0.017-0.188-0.05l-10.814-6.226c-0.146-0.085-0.219-0.258-0.175-0.422s0.192-0.278,0.362-0.278
				h1.826c0.063,0,0.129,0.017,0.188,0.05l8.801,5.065l8.268-4.741l-8.422-4.848c-0.117-0.067-0.188-0.191-0.188-0.325v-1.046
				c0-0.134,0.07-0.258,0.188-0.325c0.114-0.067,0.258-0.067,0.375,0l10.813,6.226c0.114,0.067,0.188,0.191,0.188,0.326
				c0,0.135-0.072,0.258-0.188,0.325l-10.847,6.219C33.938,41.957,33.874,41.974,33.81,41.974z M24.399,35.748l9.41,5.418
				l10.094-5.787l-9.687-5.577v0.181l8.8,5.065c0.116,0.067,0.188,0.191,0.188,0.326c0,0.135-0.07,0.258-0.188,0.325l-9.02,5.173
				c-0.115,0.066-0.258,0.066-0.375,0l-8.9-5.123L24.399,35.748L24.399,35.748z"/>
		</g>
		<g>
			<path d="M33.335,53.635l-0.02-12.829l10.84-6.258l0.02,12.829L33.335,53.635z M34.219,41.332l0.021,10.729l9.025-5.212
				l-0.02-10.729L34.219,41.332z"/>
			<path d="M33.335,54.01c-0.064,0-0.129-0.017-0.188-0.05c-0.116-0.067-0.188-0.19-0.188-0.324l-0.021-12.829
				c0-0.134,0.071-0.258,0.188-0.325l10.84-6.258c0.113-0.067,0.258-0.067,0.375,0c0.115,0.067,0.188,0.19,0.188,0.324l0.021,12.829
				c0,0.134-0.071,0.258-0.188,0.325L33.52,53.959C33.465,53.993,33.399,54.01,33.335,54.01z M33.69,41.021l0.021,11.963
				l10.091-5.826l-0.02-11.963L33.69,41.021z M34.239,52.437c-0.063,0-0.129-0.017-0.188-0.05c-0.115-0.066-0.188-0.19-0.188-0.324
				l-0.021-10.729c0-0.134,0.069-0.258,0.188-0.325l9.025-5.212c0.115-0.067,0.26-0.067,0.375,0c0.115,0.066,0.188,0.19,0.188,0.324
				l0.021,10.729c0,0.134-0.069,0.258-0.188,0.325l-9.025,5.212C34.368,52.419,34.303,52.437,34.239,52.437z M34.594,41.549
				l0.019,9.864l8.277-4.779l-0.02-9.864L34.594,41.549z"/>
		</g>
		<g>
			<path d="M34.226,53.627L23.379,47.37l0.021-12.829l10.846,6.258L34.226,53.627z M24.295,46.844l9.026,5.212l0.02-10.729
				l-9.025-5.212L24.295,46.844z"/>
			<path d="M34.226,54.002c-0.064,0-0.13-0.017-0.188-0.05L23.19,47.694c-0.115-0.067-0.188-0.191-0.188-0.325l0.02-12.829
				c0-0.134,0.071-0.257,0.188-0.324c0.115-0.067,0.26-0.067,0.375,0l10.847,6.258c0.116,0.067,0.188,0.191,0.188,0.325L34.6,53.628
				c0,0.134-0.069,0.257-0.188,0.324C34.354,53.986,34.29,54.002,34.226,54.002z M23.754,47.154l10.098,5.826l0.019-11.964
				L23.772,35.19L23.754,47.154z M33.323,52.431c-0.063,0-0.131-0.017-0.188-0.05l-9.025-5.212
				c-0.117-0.067-0.188-0.191-0.188-0.325l0.021-10.729c0-0.134,0.071-0.258,0.188-0.324c0.116-0.067,0.26-0.067,0.375,0L33.53,41
				c0.116,0.067,0.188,0.191,0.188,0.325L33.7,52.055c0,0.134-0.072,0.258-0.188,0.324C33.45,52.414,33.387,52.431,33.323,52.431z
				 M24.67,46.626l8.278,4.779l0.018-9.864l-8.277-4.779L24.67,46.626z"/>
		</g>
		<g>
			<path d="M33.81,17.976L22.995,11.75l10.849-6.226l10.813,6.226L33.81,17.976z M24.821,11.75l8.988,5.173l9.02-5.173l-8.985-5.173
				L24.821,11.75z"/>
			<path d="M33.81,18.351c-0.064,0-0.129-0.017-0.188-0.05l-10.814-6.226c-0.115-0.067-0.188-0.191-0.188-0.325
				c0-0.134,0.072-0.258,0.188-0.325l10.848-6.226c0.114-0.066,0.256-0.066,0.373,0l10.813,6.226
				c0.116,0.067,0.188,0.191,0.188,0.326c0,0.134-0.072,0.258-0.188,0.325l-10.847,6.225C33.938,18.333,33.874,18.351,33.81,18.351z
				 M23.747,11.75l10.063,5.792l10.094-5.793L33.842,5.957L23.747,11.75z M33.81,17.297c-0.064,0-0.129-0.017-0.188-0.05
				l-8.988-5.173c-0.116-0.067-0.188-0.191-0.188-0.326c0-0.135,0.07-0.258,0.188-0.325l9.021-5.173
				c0.113-0.066,0.256-0.066,0.373,0l8.986,5.173c0.116,0.067,0.188,0.191,0.188,0.326c0,0.135-0.071,0.258-0.188,0.325
				l-9.021,5.173C33.938,17.282,33.874,17.297,33.81,17.297z M25.575,11.75l8.233,4.74l8.269-4.741l-8.234-4.74L25.575,11.75z"/>
		</g>
		<g>
			<path d="M33.335,30.012l-0.02-12.829l10.84-6.265l0.02,12.829L33.335,30.012z M34.219,17.708l0.021,10.729l9.025-5.212
				l-0.02-10.729L34.219,17.708z"/>
			<path d="M33.335,30.387c-0.064,0-0.129-0.017-0.188-0.05c-0.114-0.066-0.188-0.19-0.188-0.324l-0.021-12.829
				c0-0.134,0.071-0.258,0.188-0.325l10.84-6.265c0.113-0.067,0.258-0.067,0.375,0c0.113,0.066,0.188,0.19,0.188,0.324l0.021,12.829
				c0,0.134-0.071,0.258-0.188,0.325L33.52,30.336C33.465,30.37,33.399,30.387,33.335,30.387z M33.69,17.398l0.021,11.963
				l10.091-5.832l-0.02-11.963L33.69,17.398z M34.239,28.813c-0.063,0-0.129-0.017-0.188-0.05c-0.115-0.066-0.188-0.19-0.188-0.324
				L33.844,17.71c0-0.134,0.069-0.258,0.188-0.325l9.025-5.212c0.115-0.067,0.26-0.067,0.375,0c0.115,0.066,0.188,0.19,0.188,0.324
				l0.021,10.729c0,0.134-0.069,0.258-0.188,0.325l-9.025,5.212C34.368,28.796,34.303,28.813,34.239,28.813z M34.594,17.926
				l0.019,9.864l8.277-4.779l-0.02-9.864L34.594,17.926z"/>
		</g>
		<g>
			<path d="M34.226,29.999L23.379,23.74l0.021-12.829l10.846,6.258L34.226,29.999z M24.295,23.213l9.026,5.212l0.02-10.729
				l-9.025-5.212L24.295,23.213z"/>
			<path d="M34.226,30.374c-0.064,0-0.13-0.017-0.188-0.05L23.19,24.064c-0.115-0.067-0.188-0.191-0.188-0.325l0.02-12.829
				c0-0.134,0.071-0.257,0.188-0.324c0.115-0.067,0.26-0.067,0.375,0l10.847,6.258c0.116,0.067,0.188,0.191,0.188,0.325L34.6,29.999
				c0,0.134-0.069,0.257-0.188,0.324C34.354,30.356,34.29,30.374,34.226,30.374z M23.754,23.523l10.098,5.826l0.019-11.964
				L23.772,11.56L23.754,23.523z M33.323,28.801c-0.063,0-0.131-0.017-0.188-0.05l-9.025-5.212
				c-0.117-0.067-0.188-0.191-0.188-0.325l0.021-10.73c0-0.134,0.071-0.258,0.188-0.324c0.116-0.067,0.26-0.067,0.375,0l9.024,5.212
				c0.116,0.067,0.188,0.191,0.188,0.325L33.7,28.426c0,0.134-0.072,0.258-0.188,0.324C33.45,28.785,33.387,28.801,33.323,28.801z
				 M24.67,22.998l8.278,4.779l0.018-9.864l-8.277-4.78L24.67,22.998z"/>
		</g>
		<g>
			<path d="M33.81,29.687L22.995,23.46l10.849-6.226l10.813,6.226L33.81,29.687z M24.821,23.467l8.988,5.173l9.02-5.173
				l-8.985-5.173L24.821,23.467z"/>
			<path d="M33.81,30.062c-0.064,0-0.129-0.017-0.188-0.05l-10.814-6.226c-0.115-0.067-0.188-0.191-0.188-0.326
				c0-0.134,0.072-0.258,0.188-0.325l10.848-6.226c0.114-0.066,0.256-0.066,0.373,0l10.813,6.226
				c0.116,0.067,0.188,0.191,0.188,0.325c0,0.134-0.072,0.258-0.188,0.325l-10.847,6.226C33.938,30.044,33.874,30.062,33.81,30.062z
				 M23.747,23.46l10.063,5.793l10.094-5.794l-10.062-5.792L23.747,23.46z M33.81,29.016c-0.064,0-0.129-0.017-0.188-0.05
				l-8.988-5.173c-0.116-0.067-0.188-0.191-0.188-0.326c0-0.135,0.07-0.258,0.188-0.325l9.021-5.173
				c0.113-0.066,0.256-0.066,0.373,0l8.986,5.173c0.116,0.067,0.188,0.191,0.188,0.326c0,0.135-0.071,0.258-0.188,0.325
				l-9.021,5.173C33.938,28.999,33.874,29.016,33.81,29.016z M25.575,23.468l8.233,4.74l8.269-4.741l-8.234-4.74L25.575,23.468z"/>
		</g>
		<g>
			<path d="M33.335,41.729L33.31,28.894l10.846-6.258l0.021,12.829L33.335,41.729z M34.219,29.419l0.021,10.729l9.025-5.212
				l-0.02-10.729L34.219,29.419z"/>
			<path d="M33.335,42.104c-0.064,0-0.129-0.017-0.188-0.05c-0.114-0.067-0.188-0.19-0.188-0.324l-0.025-12.835
				c0-0.134,0.071-0.259,0.188-0.326l10.846-6.258c0.115-0.067,0.258-0.067,0.375,0c0.116,0.067,0.188,0.19,0.188,0.324
				l0.021,12.829c0,0.134-0.071,0.258-0.188,0.325l-10.84,6.265C33.465,42.086,33.399,42.104,33.335,42.104z M33.685,29.109
				l0.023,11.97L43.8,35.248l-0.02-11.963L33.685,29.109z M34.239,40.524c-0.063,0-0.129-0.017-0.188-0.05
				c-0.115-0.066-0.188-0.19-0.188-0.324l-0.021-10.729c0-0.134,0.069-0.258,0.188-0.325l9.025-5.212
				c0.115-0.067,0.26-0.067,0.375,0c0.115,0.066,0.188,0.19,0.188,0.324l0.021,10.729c0,0.134-0.069,0.258-0.188,0.325l-9.025,5.212
				C34.368,40.508,34.303,40.524,34.239,40.524z M34.594,29.637l0.019,9.864l8.277-4.78l-0.02-9.864L34.594,29.637z"/>
		</g>
		<g>
			<path d="M34.226,41.716l-10.84-6.258l0.02-12.829l10.848,6.259L34.226,41.716z M24.295,34.931l9.026,5.212l0.02-10.73
				l-9.025-5.211L24.295,34.931z"/>
			<path d="M34.226,42.091c-0.064,0-0.13-0.017-0.188-0.05l-10.84-6.258c-0.117-0.067-0.188-0.191-0.188-0.325l0.021-12.829
				c0-0.134,0.07-0.257,0.188-0.324s0.26-0.067,0.375,0l10.847,6.259c0.115,0.067,0.188,0.191,0.188,0.326l-0.025,12.828
				c0,0.134-0.07,0.257-0.188,0.324C34.354,42.074,34.29,42.091,34.226,42.091z M23.761,35.241l10.091,5.826l0.024-11.963
				l-10.098-5.826L23.761,35.241z M33.323,40.518c-0.063,0-0.131-0.017-0.188-0.05l-9.025-5.212
				c-0.117-0.067-0.188-0.191-0.188-0.325l0.021-10.729c0-0.134,0.071-0.258,0.188-0.324c0.116-0.067,0.26-0.067,0.375,0
				l9.024,5.211c0.116,0.067,0.188,0.191,0.188,0.325L33.7,40.144c0,0.134-0.072,0.258-0.188,0.324
				C33.45,40.501,33.387,40.518,33.323,40.518z M24.67,34.715l8.278,4.78l0.018-9.865l-8.277-4.779L24.67,34.715z"/>
		</g>
	</g>
	<path d="M28.429,38.601c-0.553,0-1-0.448-1-1v-11c0-0.552,0.447-1,1-1s1,0.448,1,1v11C29.429,38.152,28.981,38.601,28.429,38.601z"
		/>
</g>
</svg>
