<?xml version="1.0" encoding="utf-8"?>
<!-- Generator: Adobe Illustrator 16.0.0, SVG Export Plug-In . SVG Version: 6.00 Build 0)  -->
<!DOCTYPE svg PUBLIC "-//W3C//DTD SVG 1.1//EN" "http://www.w3.org/Graphics/SVG/1.1/DTD/svg11.dtd">
<svg version="1.1" id="图层_1" xmlns="http://www.w3.org/2000/svg" xmlns:xlink="http://www.w3.org/1999/xlink" x="0px" y="0px"
	 width="68px" height="68px" viewBox="0 0 68 68" enable-background="new 0 0 68 68" xml:space="preserve">
<g>
	<path fill="#FFE4CC" d="M24.658,30.86"/>
	<path fill="#FFFFFF" d="M19.848,33.193v11.056c0,0-0.359,6.187,5.562,6.187c6.061,0,5.563-6.187,5.563-6.187V25.657
		c0,0-0.505-13.225,11.888-13.225c12.386,0,11.888,13.225,11.888,13.225v7.536h-6.273v-7.272c0,0,0.585-6.452-5.611-6.452
		c-6.131,0-5.67,6.217-5.67,6.217l0.094,18.753c0,0-0.456,13.152-11.873,13.152c-12.563,0-11.931-13.24-11.931-13.24V33.193H19.848z
		"/>
	<path d="M25.409,58.294c-3.79,0-6.814-1.159-8.995-3.444c-1.62-1.7-2.764-4.061-3.305-6.827c-0.388-1.978-0.342-3.495-0.335-3.687
		V33.193c0-0.388,0.314-0.704,0.704-0.704h6.37c0.389,0,0.703,0.315,0.703,0.704v11.056c0,0.014,0,0.027-0.001,0.041
		c-0.001,0.024-0.119,2.567,1.379,4.147c0.813,0.859,1.983,1.295,3.479,1.295c1.553,0,2.755-0.447,3.571-1.327
		c1.461-1.577,1.29-4.076,1.288-4.101c-0.001-0.018-0.002-0.037-0.002-0.055V25.668c-0.006-0.177-0.04-1.709,0.367-3.709
		c0.565-2.778,1.729-5.143,3.359-6.839c2.167-2.251,5.148-3.392,8.862-3.392c3.711,0,6.688,1.141,8.856,3.391
		c1.634,1.696,2.797,4.062,3.363,6.84c0.408,2,0.375,3.534,0.369,3.71v7.525c0,0.389-0.314,0.704-0.704,0.704h-6.273
		c-0.391,0-0.704-0.315-0.704-0.704v-7.272c0-0.021,0.001-0.043,0.003-0.063c0.002-0.025,0.213-2.68-1.303-4.33
		c-0.822-0.898-2.037-1.354-3.608-1.354c-1.587,0-2.815,0.456-3.651,1.356c-1.481,1.598-1.316,4.079-1.314,4.104
		c0.001,0.016,0.002,0.033,0.002,0.048l0.094,18.753c0,0.009,0,0.019-0.001,0.028c-0.005,0.14-0.137,3.471-1.721,6.85
		C34.124,55.881,30.37,58.294,25.409,58.294L25.409,58.294z M14.182,33.897v10.454c0,0.012,0,0.022,0,0.034
		c-0.003,0.058-0.228,5.854,3.258,9.501c1.901,1.991,4.584,3.001,7.97,3.001c4.424,0,7.644-2.063,9.563-6.134
		c1.428-3.025,1.596-6.11,1.604-6.327l-0.094-18.715c-0.021-0.331-0.133-3.175,1.688-5.139c1.113-1.198,2.688-1.806,4.686-1.806
		c1.986,0,3.553,0.612,4.654,1.818c1.846,2.021,1.688,4.989,1.659,5.365v6.541h4.868v-6.833c0-0.009,0-0.018,0-0.027
		c0.003-0.058,0.169-5.898-3.347-9.542c-1.89-1.959-4.527-2.953-7.837-2.953c-3.316,0-5.957,0.996-7.849,2.961
		c-3.519,3.655-3.34,9.475-3.338,9.533c0.001,0.009,0.001,0.018,0.001,0.027v18.568c0.022,0.349,0.146,3.18-1.651,5.129
		c-1.096,1.186-2.646,1.787-4.612,1.787c-1.901,0-3.418-0.586-4.509-1.743c-1.852-1.96-1.771-4.855-1.756-5.166V33.897H14.182z"/>
	<path d="M24.694,54.893c-2.507,0-4.536-0.818-6.03-2.432c-3.073-3.318-2.771-8.825-2.739-9.324V37.4
		c0-0.389,0.315-0.704,0.704-0.704c0.391,0,0.703,0.315,0.703,0.704v5.762c0,0.018,0,0.036-0.002,0.054
		c-0.004,0.052-0.365,5.344,2.371,8.292c1.217,1.311,2.896,1.976,4.993,1.976c2.68,0,4.783-0.811,6.253-2.409
		c2.866-3.119,2.468-8.271,2.463-8.323c-0.002-0.02-0.003-0.04-0.003-0.06V25.156c0-0.104,0.019-2.544,1.163-5.017
		c1.082-2.34,3.395-5.129,8.259-5.129c2.807,0,5.042,0.833,6.646,2.476c2.576,2.643,2.553,6.413,2.548,6.681v4.156
		c0,0.389-0.314,0.704-0.703,0.704s-0.704-0.315-0.704-0.704v-4.164v-0.018c0-0.033,0.046-3.431-2.157-5.682
		c-1.326-1.355-3.22-2.042-5.628-2.042c-3.309,0-5.658,1.451-6.98,4.313c-1.018,2.195-1.032,4.405-1.032,4.427v17.506
		c0.04,0.515,0.366,5.876-2.825,9.356C30.241,53.927,27.788,54.893,24.694,54.893L24.694,54.893z"/>
	<path fill="#B6F5FF" d="M22.464,33.152H10.9c-0.125,0-0.229-0.103-0.229-0.227V18.671c0-0.125,0.104-0.228,0.229-0.228h11.563
		c0.125,0,0.229,0.102,0.229,0.228v14.254C22.69,33.05,22.588,33.152,22.464,33.152L22.464,33.152z"/>
	<path d="M14.704,23.017c-0.389,0-0.704-0.315-0.704-0.704v-3.871c0-0.389,0.315-0.704,0.704-0.704c0.391,0,0.704,0.315,0.704,0.704
		v3.871C15.407,22.703,15.093,23.017,14.704,23.017L14.704,23.017z M18.974,23.017c-0.391,0-0.704-0.315-0.704-0.704v-3.871
		c0-0.389,0.313-0.704,0.704-0.704c0.389,0,0.704,0.315,0.704,0.704v3.871C19.678,22.703,19.363,23.017,18.974,23.017L18.974,23.017
		z"/>
	<path d="M22.464,33.856H10.9c-0.514,0-0.932-0.417-0.932-0.931V18.671c0-0.514,0.418-0.932,0.932-0.932h11.563
		c0.515,0,0.933,0.417,0.933,0.932v14.254C23.395,33.438,22.977,33.856,22.464,33.856L22.464,33.856z M11.375,32.449h10.611V19.148
		H11.375V32.449z"/>
	<path fill="#B6F5FF" d="M57.1,47.861H45.534c-0.125,0-0.228-0.102-0.228-0.228V33.379c0-0.125,0.103-0.227,0.228-0.227h11.564
		c0.125,0,0.228,0.102,0.228,0.227v14.254C57.327,47.759,57.225,47.861,57.1,47.861L57.1,47.861z"/>
	<path d="M49.341,48.353c-0.391,0-0.703-0.315-0.703-0.704v-3.871c0-0.389,0.313-0.704,0.703-0.704c0.389,0,0.702,0.315,0.702,0.704
		v3.871C50.044,48.038,49.729,48.353,49.341,48.353L49.341,48.353z M53.609,48.353c-0.389,0-0.703-0.315-0.703-0.704v-3.871
		c0-0.389,0.314-0.704,0.703-0.704s0.704,0.315,0.704,0.704v3.871C54.313,48.038,53.999,48.353,53.609,48.353L53.609,48.353z"/>
	<path d="M57.1,48.565H45.534c-0.514,0-0.932-0.417-0.932-0.932V33.379c0-0.513,0.418-0.931,0.932-0.931H57.1
		c0.514,0,0.932,0.417,0.932,0.931v14.254C58.031,48.148,57.613,48.565,57.1,48.565L57.1,48.565z M46.011,47.158h10.61V33.856
		h-10.61V47.158z"/>
</g>
</svg>
