<?xml version="1.0" encoding="utf-8"?>
<!-- Generator: Adobe Illustrator 16.0.0, SVG Export Plug-In . SVG Version: 6.00 Build 0)  -->
<!DOCTYPE svg PUBLIC "-//W3C//DTD SVG 1.1//EN" "http://www.w3.org/Graphics/SVG/1.1/DTD/svg11.dtd">
<svg version="1.1" id="图层_1" xmlns="http://www.w3.org/2000/svg" xmlns:xlink="http://www.w3.org/1999/xlink" x="0px" y="0px"
	 width="68px" height="68px" viewBox="0 0 68 68" enable-background="new 0 0 68 68" xml:space="preserve">
<g>
	<g>
		<path fill="#2C2C2C" d="M41.425,39.694c3.111-2.05,5.276-5.625,5.643-9.803h1.527c0.809,0,1.457-0.65,1.457-1.457
			c0-0.806-0.648-1.457-1.457-1.457c0-8.044-5.063-14.569-13.11-14.569c-8.051,0-13.111,6.525-13.111,14.569
			c-0.807,0-1.457,0.65-1.457,1.457c0,0.807,0.65,1.457,1.457,1.457h1.529c0.357,4.178,2.527,7.753,5.635,9.803
			c-6.723,2.436-11.535,8.856-11.535,16.422c0,0.744,0.286,1.493,0.854,2.06c0.567,0.567,1.315,0.854,2.062,0.854h29.138
			c0.744,0,1.493-0.286,2.063-0.854c0.565-0.567,0.854-1.316,0.854-2.06C52.966,48.55,48.152,42.13,41.425,39.694L41.425,39.694z
			 M39.635,16.186l-0.843,4.964h-6.67l-0.828-4.948c1.233-0.562,2.628-0.879,4.188-0.879C37.028,15.322,38.412,15.64,39.635,16.186
			L39.635,16.186z M28.656,18.075l0.593,3.554c0.234,1.405,1.452,2.435,2.873,2.435h6.665c1.42,0,2.633-1.025,2.872-2.424
			l0.614-3.601c2.18,2.139,3.406,5.333,3.406,8.939H25.284C25.284,23.387,26.497,20.214,28.656,18.075L28.656,18.075z
			 M20.914,56.116c0-6.104,3.865-11.604,9.615-13.685c1.035-0.375,1.772-1.301,1.897-2.399c0.13-1.092-0.369-2.17-1.291-2.773
			c-2.43-1.603-3.923-4.313-4.261-7.368h17.202c-0.334,3.055-1.827,5.765-4.262,7.368c-0.922,0.609-1.422,1.681-1.29,2.773
			c0.13,1.093,0.861,2.024,1.896,2.399c5.76,2.081,9.626,7.581,9.626,13.685H20.914z"/>
	</g>
	<path fill="#B6F5FF" d="M28.656,18.158l0.593,3.554c0.234,1.405,1.452,2.435,2.873,2.435h6.665c1.42,0,2.633-1.025,2.872-2.424
		l0.614-3.601c2.18,2.139,3.406,5.333,3.406,8.939H25.284C25.284,23.471,26.497,20.297,28.656,18.158L28.656,18.158z"/>
	<path fill="#B6F5FF" d="M39.653,16.181l-0.845,4.964h-6.67l-0.828-4.948c1.233-0.562,2.63-0.879,4.188-0.879
		C37.047,15.318,38.431,15.635,39.653,16.181L39.653,16.181z"/>
</g>
</svg>
