<?xml version="1.0" encoding="utf-8"?>
<!-- Generator: Adobe Illustrator 16.0.0, SVG Export Plug-In . SVG Version: 6.00 Build 0)  -->
<!DOCTYPE svg PUBLIC "-//W3C//DTD SVG 1.1//EN" "http://www.w3.org/Graphics/SVG/1.1/DTD/svg11.dtd">
<svg version="1.1" id="图层_1" xmlns="http://www.w3.org/2000/svg" xmlns:xlink="http://www.w3.org/1999/xlink" x="0px" y="0px"
	 width="68px" height="68px" viewBox="0 0 68 68" enable-background="new 0 0 68 68" xml:space="preserve">
<g>
	<g>
		<path fill="#B6F5FF" d="M44.142,23.396l0.021,11.775l-9.93,5.738l-0.021-11.782L44.142,23.396z"/>
		<g>
			<path d="M34.107,65.19l-0.449,0.252l-0.006-0.52L11.796,52.31l0.048-5.069l0.907,0.006l-0.039,4.536L33.64,63.869l-0.03-4.009
				l0.909-0.008l0.039,4.023l20.938-12.094l-0.039-4.536l0.909-0.006l0.046,5.069L34.563,64.923l0.006,0.533L34.107,65.19z"/>
			<path d="M34.38,65.782l-0.273-0.16l-0.266,0.148c-0.113,0.064-0.256,0.064-0.369-0.002c-0.115-0.066-0.187-0.188-0.188-0.32
				l-0.004-0.307l-21.67-12.506c-0.118-0.068-0.189-0.193-0.188-0.328l0.046-5.069c0.004-0.207,0.151-0.341,0.38-0.372l0.907,0.006
				c0.103,0.001,0.197,0.041,0.268,0.111c0.066,0.072,0.105,0.168,0.104,0.268l-0.037,4.316l20.171,11.65l-0.025-3.354
				c-0.001-0.1,0.038-0.195,0.104-0.266c0.073-0.072,0.166-0.111,0.268-0.113l0.908-0.006c0.191,0.018,0.377,0.164,0.379,0.371
				l0.031,3.381l20.192-11.664L55.08,47.25c-0.001-0.101,0.038-0.196,0.107-0.267c0.073-0.071,0.165-0.112,0.265-0.112l0.909-0.006
				c0.183,0.03,0.376,0.165,0.378,0.372l0.046,5.068c0,0.135-0.072,0.262-0.188,0.328L34.939,65.14l0.004,0.313
				c0.001,0.135-0.072,0.26-0.188,0.328c-0.057,0.033-0.125,0.051-0.188,0.051C34.504,65.831,34.438,65.813,34.38,65.782z
				 M55.992,47.618l-0.159,0.001l0.036,4.16c0,0.135-0.072,0.261-0.188,0.327L34.743,64.2c-0.114,0.066-0.258,0.066-0.373,0.001
				c-0.117-0.065-0.188-0.188-0.188-0.322l-0.035-3.647h-0.16l0.027,3.635c0,0.134-0.072,0.259-0.188,0.326
				c-0.114,0.066-0.261,0.068-0.376,0L12.524,52.106c-0.118-0.067-0.189-0.193-0.188-0.328l0.036-4.16l-0.16-0.001l-0.04,4.476
				l21.666,12.506c0.086,0.051,0.151,0.133,0.176,0.228c0.062-0.017,0.125-0.017,0.187,0c0.028-0.095,0.088-0.179,0.175-0.228
				l21.659-12.506L55.992,47.618z"/>
		</g>
		<g>
			<path d="M34.01,59.244L54.78,47.286l-10.665-6.122l0.449-0.786l12.042,6.908l-22.148,12.75L34.01,59.244z"/>
			<path d="M34.36,60.397c-0.097-0.026-0.179-0.09-0.229-0.178l-0.445-0.793c-0.102-0.179-0.039-0.406,0.139-0.51L54.03,47.285
				L43.93,41.488c-0.182-0.103-0.243-0.331-0.141-0.511l0.449-0.787c0.049-0.086,0.131-0.149,0.227-0.176
				c0.098-0.026,0.198-0.013,0.285,0.037l12.043,6.908c0.116,0.066,0.188,0.189,0.188,0.325c0,0.135-0.073,0.259-0.188,0.325
				L34.646,60.36c-0.059,0.033-0.123,0.051-0.188,0.051C34.426,60.411,34.391,60.406,34.36,60.397z M44.704,40.89l-0.077,0.135
				l10.34,5.937c0.116,0.067,0.188,0.19,0.188,0.325c0,0.134-0.072,0.258-0.188,0.324L34.52,59.382l0.078,0.141l21.256-12.236
				L44.704,40.89z"/>
		</g>
		<g>
			<path d="M11.396,47.285l12.549-7.228l0.455,0.793l-11.178,6.435l21.049,12.067l-0.104,0.177l0.292,0.507l-0.415,0.24
				L11.396,47.285z M43.18,35.353h1.822l-10.813,6.227L23.344,35.36l10.813-6.227v1.047l-8.986,5.172l9.021,5.174L43.18,35.353"/>
			<path d="M33.855,60.601L11.207,47.612c-0.118-0.067-0.188-0.19-0.188-0.325c0-0.136,0.071-0.259,0.188-0.326l12.549-7.228
				c0.086-0.049,0.188-0.062,0.285-0.036c0.097,0.026,0.179,0.089,0.229,0.175l0.455,0.793c0.101,0.18,0.041,0.408-0.141,0.512
				l-10.609,6.108l20.479,11.743c0.087,0.05,0.153,0.132,0.177,0.229c0.026,0.092,0.015,0.19-0.031,0.274l0.185,0.317
				c0.103,0.18,0.042,0.408-0.138,0.512l-0.416,0.24c-0.06,0.033-0.125,0.051-0.188,0.051
				C33.977,60.651,33.913,60.634,33.855,60.601z M13.034,47.612c-0.118-0.067-0.188-0.19-0.188-0.325
				c0-0.136,0.071-0.259,0.188-0.326l10.854-6.247l-0.082-0.143L12.15,47.285l21.703,12.45l-0.012-0.02
				c-0.035-0.063-0.054-0.135-0.051-0.205L13.034,47.612z M34.004,41.904l-10.846-6.22c-0.117-0.066-0.188-0.189-0.188-0.324
				s0.072-0.26,0.188-0.326l10.813-6.227c0.115-0.066,0.261-0.066,0.375,0c0.116,0.067,0.188,0.191,0.188,0.325v1.046
				c0,0.135-0.072,0.258-0.188,0.325l-8.424,4.849l8.27,4.74l8.801-5.064c0.058-0.033,0.124-0.051,0.188-0.051h1.824
				c0.17,0,0.318,0.114,0.362,0.278s-0.029,0.337-0.175,0.423l-10.814,6.226c-0.059,0.032-0.125,0.05-0.188,0.05
				C34.127,41.954,34.063,41.937,34.004,41.904z M43.602,35.728l-0.322,0.002l-8.9,5.123c-0.115,0.065-0.26,0.065-0.375,0
				l-9.02-5.174c-0.117-0.066-0.188-0.189-0.188-0.324s0.072-0.26,0.188-0.326l8.8-5.065v-0.181l-9.687,5.576l10.094,5.787
				L43.602,35.728L43.602,35.728z"/>
		</g>
		<g>
			<path d="M23.826,47.356l0.021-12.828l10.84,6.258l-0.021,12.829L23.826,47.356z M24.756,36.101l-0.02,10.729l9.025,5.212
				l0.021-10.729L24.756,36.101z"/>
			<path d="M34.48,53.94L23.64,47.683c-0.117-0.067-0.188-0.191-0.188-0.326l0.021-12.828c0-0.135,0.071-0.258,0.188-0.324
				c0.117-0.066,0.261-0.066,0.375,0l10.84,6.258c0.117,0.067,0.188,0.191,0.188,0.325l-0.021,12.829
				c0,0.134-0.071,0.257-0.188,0.324c-0.06,0.033-0.124,0.05-0.188,0.05S34.536,53.974,34.48,53.94z M24.219,35.177L24.198,47.14
				l10.091,5.825l0.021-11.963L24.219,35.177z M33.575,52.367l-9.026-5.212c-0.117-0.067-0.188-0.191-0.188-0.325l0.02-10.729
				c0-0.134,0.073-0.258,0.188-0.324c0.116-0.066,0.26-0.066,0.375,0l9.024,5.213c0.118,0.066,0.188,0.191,0.188,0.324l-0.02,10.729
				c0,0.134-0.073,0.259-0.188,0.324c-0.059,0.032-0.125,0.05-0.188,0.05C33.698,52.417,33.633,52.399,33.575,52.367z M25.131,36.75
				l-0.02,9.864l8.277,4.779l0.019-9.864L25.131,36.75z"/>
		</g>
		<g>
			<path d="M33.754,40.779l10.848-6.259l0.021,12.83l-10.847,6.258L33.754,40.779z M43.686,36.095l-9.025,5.213l0.021,10.729
				l9.024-5.212L43.686,36.095z"/>
			<path d="M33.591,53.933c-0.117-0.066-0.188-0.189-0.188-0.324L33.382,40.78c0-0.135,0.072-0.258,0.188-0.325l10.847-6.258
				c0.115-0.067,0.259-0.067,0.375,0c0.117,0.067,0.188,0.19,0.188,0.323L45,47.351c0,0.133-0.074,0.258-0.188,0.324l-10.85,6.258
				c-0.058,0.033-0.125,0.051-0.188,0.051C33.711,53.983,33.646,53.967,33.591,53.933z M44.229,35.171l-10.1,5.825l0.021,11.964
				l10.098-5.826L44.229,35.171z M34.491,52.358c-0.117-0.065-0.188-0.189-0.188-0.323l-0.021-10.729
				c0-0.134,0.072-0.258,0.188-0.324l9.023-5.211c0.115-0.066,0.258-0.066,0.375,0s0.188,0.19,0.188,0.324l0.021,10.729
				c0,0.134-0.072,0.258-0.188,0.325l-9.026,5.211c-0.057,0.033-0.125,0.051-0.188,0.051C34.614,52.411,34.551,52.394,34.491,52.358
				z M43.313,36.743l-8.277,4.779l0.02,9.863l8.276-4.779L43.313,36.743z"/>
		</g>
		<g>
			<path d="M23.344,11.73l10.813-6.227l10.848,6.227l-10.813,6.226L23.344,11.73z M34.156,6.557L25.17,11.73l9.021,5.173
				l8.988-5.173L34.156,6.557z"/>
			<path d="M34.006,18.281l-10.847-6.225c-0.117-0.067-0.188-0.191-0.188-0.326s0.071-0.258,0.188-0.325L33.973,5.18
				c0.115-0.066,0.259-0.066,0.373,0l10.848,6.226c0.117,0.067,0.188,0.19,0.188,0.325c0,0.134-0.072,0.258-0.188,0.324
				l-10.814,6.227c-0.059,0.032-0.125,0.05-0.188,0.05C34.127,18.331,34.063,18.313,34.006,18.281z M34.159,5.938L24.098,11.73
				l10.094,5.792l10.063-5.792L34.159,5.938z M34.007,17.228l-9.021-5.173c-0.116-0.066-0.188-0.189-0.188-0.324
				s0.072-0.26,0.188-0.326l8.987-5.174c0.115-0.065,0.259-0.065,0.373,0l9.021,5.174c0.117,0.066,0.188,0.189,0.188,0.324
				c0,0.136-0.072,0.26-0.188,0.326l-8.988,5.173c-0.059,0.033-0.125,0.051-0.188,0.051C34.127,17.278,34.063,17.263,34.007,17.228z
				 M34.158,6.99l-8.234,4.74l8.27,4.741l8.232-4.741L34.158,6.99z"/>
		</g>
		<g>
			<path d="M23.826,23.728l0.021-12.829l10.84,6.265l-0.021,12.829L23.826,23.728z M24.756,12.477l-0.02,10.729l9.025,5.212
				l0.021-10.729L24.756,12.477z"/>
			<path d="M34.48,30.317L23.64,24.052c-0.117-0.066-0.188-0.191-0.188-0.324l0.021-12.829c0-0.135,0.073-0.258,0.188-0.324
				c0.117-0.067,0.261-0.067,0.375,0l10.84,6.265c0.117,0.067,0.188,0.191,0.188,0.325l-0.021,12.829
				c0,0.134-0.073,0.258-0.188,0.324c-0.06,0.033-0.124,0.05-0.188,0.05S34.536,30.351,34.48,30.317z M24.219,11.547l-0.021,11.964
				l10.091,5.831l0.021-11.963L24.219,11.547z M33.575,28.744l-9.026-5.212c-0.117-0.067-0.188-0.191-0.188-0.325l0.02-10.729
				c0-0.135,0.073-0.258,0.188-0.324c0.116-0.067,0.26-0.067,0.375,0l9.024,5.212c0.118,0.066,0.188,0.191,0.188,0.324l-0.02,10.729
				c0,0.134-0.073,0.259-0.188,0.324c-0.059,0.032-0.125,0.05-0.188,0.05C33.698,28.794,33.633,28.776,33.575,28.744z
				 M25.131,13.127l-0.02,9.864l8.277,4.779l0.019-9.864L25.131,13.127z"/>
		</g>
		<g>
			<path d="M33.754,17.149l10.848-6.259l0.021,12.829l-10.847,6.26L33.754,17.149z M43.686,12.465l-9.025,5.212l0.021,10.729
				l9.024-5.212L43.686,12.465z"/>
			<path d="M33.591,30.304c-0.117-0.068-0.188-0.19-0.188-0.324l-0.021-12.83c0-0.133,0.072-0.258,0.188-0.324l10.847-6.259
				c0.115-0.066,0.259-0.066,0.375,0c0.117,0.068,0.188,0.19,0.188,0.324L45,23.72c0,0.135-0.074,0.258-0.188,0.325l-10.85,6.259
				c-0.058,0.033-0.125,0.051-0.188,0.051C33.711,30.354,33.646,30.337,33.591,30.304z M44.229,11.54l-10.1,5.826l0.021,11.964
				l10.098-5.826L44.229,11.54z M34.491,28.729c-0.117-0.065-0.188-0.189-0.188-0.323l-0.021-10.729
				c0-0.134,0.072-0.258,0.188-0.324l9.023-5.212c0.115-0.067,0.258-0.067,0.375,0c0.117,0.065,0.188,0.189,0.188,0.323l0.021,10.73
				c0,0.134-0.072,0.258-0.188,0.324l-9.026,5.213c-0.057,0.033-0.125,0.05-0.188,0.05C34.614,28.781,34.551,28.765,34.491,28.729z
				 M43.313,13.113l-8.277,4.78l0.02,9.863l8.276-4.779L43.313,13.113z"/>
		</g>
		<g>
			<path d="M23.344,23.44l10.813-6.226l10.848,6.226l-10.813,6.227L23.344,23.44z M34.156,18.274l-8.986,5.173l9.021,5.173
				l8.988-5.173L34.156,18.274z"/>
			<path d="M34.006,29.991l-10.847-6.227c-0.117-0.066-0.188-0.19-0.188-0.324c0-0.135,0.071-0.258,0.188-0.325l10.813-6.226
				c0.115-0.066,0.259-0.066,0.373,0l10.848,6.226c0.117,0.067,0.188,0.19,0.188,0.325s-0.072,0.259-0.188,0.326l-10.814,6.226
				c-0.059,0.032-0.125,0.05-0.188,0.05C34.127,30.042,34.063,30.024,34.006,29.991z M34.159,17.647L24.098,23.44l10.094,5.793
				l10.063-5.793L34.159,17.647z M34.007,28.946l-9.021-5.174c-0.116-0.066-0.188-0.189-0.188-0.324s0.072-0.26,0.188-0.326
				l8.987-5.173c0.115-0.066,0.259-0.066,0.373,0l9.021,5.173c0.117,0.066,0.188,0.189,0.188,0.325c0,0.135-0.072,0.259-0.188,0.325
				l-8.988,5.174c-0.059,0.033-0.125,0.05-0.188,0.05C34.127,28.996,34.063,28.979,34.007,28.946z M34.158,18.707l-8.234,4.74
				l8.27,4.741l8.232-4.74L34.158,18.707z"/>
		</g>
		<g>
			<path d="M23.824,35.445l0.021-12.829l10.846,6.258l-0.025,12.835L23.824,35.445z M24.756,24.188l-0.02,10.729l9.025,5.212
				l0.021-10.729L24.756,24.188z"/>
			<path d="M34.478,42.034l-10.84-6.266c-0.117-0.066-0.188-0.19-0.188-0.324l0.021-12.829c0-0.134,0.071-0.257,0.188-0.324
				c0.117-0.067,0.26-0.067,0.375,0l10.846,6.258c0.117,0.067,0.188,0.192,0.188,0.326L35.042,41.71
				c0,0.135-0.073,0.257-0.188,0.324c-0.06,0.033-0.124,0.05-0.188,0.05S34.536,42.067,34.478,42.034z M24.223,23.265l-0.021,11.963
				l10.092,5.832l0.023-11.97L24.223,23.265z M33.575,40.455l-9.026-5.212c-0.117-0.066-0.188-0.191-0.188-0.325l0.02-10.729
				c0-0.133,0.073-0.258,0.188-0.323c0.116-0.067,0.26-0.067,0.375,0l9.024,5.212c0.118,0.066,0.188,0.191,0.188,0.324l-0.02,10.729
				c0,0.134-0.073,0.259-0.188,0.324c-0.059,0.033-0.125,0.05-0.188,0.05C33.698,40.505,33.633,40.488,33.575,40.455z
				 M25.131,24.837l-0.02,9.864l8.277,4.78l0.019-9.864L25.131,24.837z"/>
		</g>
		<g>
			<path d="M33.747,28.868l10.849-6.26l0.02,12.83l-10.84,6.258L33.747,28.868z M43.686,24.183l-9.025,5.211l0.021,10.729
				l9.024-5.212L43.686,24.183z"/>
			<path d="M33.587,42.022c-0.116-0.067-0.188-0.19-0.188-0.324L33.374,28.87c0-0.135,0.072-0.26,0.188-0.326l10.846-6.259
				c0.115-0.067,0.257-0.067,0.375,0s0.188,0.19,0.188,0.323l0.021,12.83c0,0.134-0.072,0.258-0.188,0.324l-10.842,6.258
				c-0.058,0.033-0.125,0.051-0.188,0.051C33.711,42.071,33.646,42.054,33.587,42.022z M44.225,23.258l-10.1,5.826l0.024,11.963
				l10.091-5.825L44.225,23.258z M34.491,40.448c-0.117-0.066-0.188-0.19-0.188-0.324l-0.021-10.73c0-0.133,0.072-0.258,0.188-0.324
				l9.023-5.211c0.115-0.067,0.258-0.067,0.375,0c0.117,0.065,0.188,0.189,0.188,0.324l0.021,10.729
				c0,0.134-0.072,0.258-0.188,0.324l-9.026,5.213c-0.057,0.033-0.125,0.05-0.188,0.05C34.614,40.498,34.551,40.481,34.491,40.448z
				 M43.313,24.831l-8.277,4.779l0.02,9.865l8.276-4.78L43.313,24.831z"/>
		</g>
	</g>
	<path d="M33.954,34.019l9.555-5.448c0.479-0.273,1.091-0.107,1.364,0.373s0.105,1.091-0.374,1.364l-9.555,5.448
		c-0.479,0.273-1.091,0.107-1.365-0.373C33.307,34.902,33.475,34.292,33.954,34.019z"/>
</g>
</svg>
