<?xml version="1.0" encoding="utf-8"?>
<!-- Generator: Adobe Illustrator 16.0.0, SVG Export Plug-In . SVG Version: 6.00 Build 0)  -->
<!DOCTYPE svg PUBLIC "-//W3C//DTD SVG 1.1//EN" "http://www.w3.org/Graphics/SVG/1.1/DTD/svg11.dtd">
<svg version="1.1" id="图层_1" xmlns="http://www.w3.org/2000/svg" xmlns:xlink="http://www.w3.org/1999/xlink" x="0px" y="0px"
	 width="68px" height="68px" viewBox="0 0 68 68" enable-background="new 0 0 68 68" xml:space="preserve">
<g>
	<g>
		<path d="M37.382,59.129H14.007c-0.81,0-1.452-0.642-1.452-1.452V13.688c0-2.429,1.981-4.411,4.41-4.411h17.514
			c2.428,0,4.382,1.982,4.382,4.411v43.961C38.847,58.46,38.193,59.114,37.382,59.129L37.382,59.129z M15.458,56.17h20.444V13.688
			c0-0.81-0.67-1.479-1.451-1.479H16.937c-0.81,0-1.479,0.67-1.479,1.479V56.17L15.458,56.17z"/>
		<path d="M44.783,56.004"/>
		<path d="M32.31,32.723H19.107c-0.809,0-1.451-0.642-1.451-1.451c0-0.81,0.642-1.452,1.451-1.452H32.31
			c0.81,0,1.452,0.642,1.452,1.452C33.761,32.082,33.119,32.723,32.31,32.723L32.31,32.723z"/>
		<path d="M32.31,23.96H19.107c-0.809,0-1.451-0.642-1.451-1.48c0-0.837,0.642-1.479,1.451-1.479H32.31
			c0.81,0,1.452,0.642,1.452,1.479C33.761,23.318,33.119,23.96,32.31,23.96L32.31,23.96z"/>
		<path d="M32.31,41.544H19.107c-0.809,0-1.451-0.642-1.451-1.479c0-0.809,0.642-1.452,1.451-1.452H32.31
			c0.81,0,1.452,0.643,1.452,1.452C33.761,40.874,33.119,41.544,32.31,41.544L32.31,41.544z"/>
		<path d="M32.31,50.336H19.107c-0.809,0-1.451-0.642-1.451-1.479c0-0.809,0.642-1.479,1.451-1.479H32.31
			c0.81,0,1.452,0.642,1.452,1.479C33.761,49.666,33.119,50.336,32.31,50.336L32.31,50.336z"/>
		<path d="M60.343,59.187H10.681c-0.825,0-1.474-0.648-1.474-1.474s0.648-1.474,1.474-1.474h49.662c0.825,0,1.473,0.648,1.473,1.474
			S61.168,59.187,60.343,59.187L60.343,59.187z"/>
	</g>
	<g>
		<path fill="#2C2C2C" d="M45,39.032c0-1.001,0.548-1.042,0.548-1.042c0-0.399-1.145-1.361-1.568-1.361
			c-0.421,0-1.399,0.824-1.399,1.225c0,0,0.419,0.076,0.419,0.95v5.784h-1v1h1.13c-0.816,0-1.13,1.805-1.13,2.568v4.519
			c0,0.015-0.196,0.03-0.194,0.045c0,0.003-0.101,0.28-0.102,0.282c0.076,0.736,0.629,1.586,1.426,1.586h1.53
			c0.788,0,1.438-0.841,1.52-1.569c-0.101-1.113-1.085-2.128-2.289-2.128c1.203,0,2.095,0.806,2.195,1.922
			C46.091,52.762,46,52.642,46,52.588v-4.35c0-0.802-0.496-2.649-1.34-2.649H46v-1h-1V39.032z"/>
		<path fill="#2C2C2C" d="M39.736,52.478v-0.417c-0.008,0.068-0.008,0.141-0.008,0.208C39.729,52.341,39.732,52.41,39.736,52.478z"
			/>
		<path fill="#2C2C2C" d="M59.108,27.588h-2.301c0-1-0.63-1.188-1.512-1.513c-0.246-0.09-0.513,0.513-0.792,0.513H49v-0.304
			c-1,0-1.4,0.304-1.4,1.304H45v-1h-2v8h2v-5h2.6c0,4,0.4,3.603,1.4,3.603v18.413c0,1.271,1.229,2.301,2.5,2.301
			c1.272,0,2.5-1.029,2.5-2.301V34.588h1.234h3.874c1.271,0,2.301-2.229,2.301-3.5S60.379,27.588,59.108,27.588z"/>
	</g>
</g>
</svg>
