<?xml version="1.0" encoding="utf-8"?>
<!-- Generator: Adobe Illustrator 16.0.0, SVG Export Plug-In . SVG Version: 6.00 Build 0)  -->
<!DOCTYPE svg PUBLIC "-//W3C//DTD SVG 1.1//EN" "http://www.w3.org/Graphics/SVG/1.1/DTD/svg11.dtd">
<svg version="1.1" id="图层_1" xmlns="http://www.w3.org/2000/svg" xmlns:xlink="http://www.w3.org/1999/xlink" x="0px" y="0px"
	 width="68px" height="68px" viewBox="0 0 68 68" enable-background="new 0 0 68 68" xml:space="preserve">
<g>
	<path fill="#B6F5FF" d="M44.827,23.144l-9.93,5.7l-9.904-5.7l9.937-5.699L44.827,23.144z"/>
	<path fill="#B6F5FF" d="M34.852,28.843l0.021,11.776l9.936-5.732l-0.02-11.782L34.852,28.843z"/>
	<path fill="#B6F5FF" d="M34.878,28.83l-0.02,11.782l-9.93-5.738l0.02-11.776L34.878,28.83z"/>
	<g>
		<path d="M34.521,65.158l0.006-0.533L12.678,52.011l0.046-5.069l0.909,0.006l-0.039,4.536l20.939,12.094l0.039-4.023l0.909,0.007
			l-0.031,4.009l20.926-12.087l-0.039-4.536l0.91-0.006l0.045,5.069L35.437,64.625l-0.006,0.52l-0.449-0.253L34.521,65.158z"/>
		<path d="M34.521,65.533c-0.065,0-0.131-0.017-0.189-0.051c-0.117-0.068-0.188-0.193-0.186-0.328l0.003-0.313L12.49,52.336
			c-0.117-0.067-0.188-0.193-0.188-0.328l0.046-5.069c0.002-0.206,0.169-0.372,0.375-0.372c0.001,0,0.002,0,0.002,0l0.909,0.006
			c0.1,0,0.195,0.041,0.265,0.112c0.07,0.071,0.109,0.167,0.108,0.267l-0.037,4.317l20.194,11.664l0.033-3.38
			c0.002-0.206,0.169-0.372,0.375-0.372c0.001,0,0.002,0,0.003,0l0.909,0.007c0.099,0.001,0.194,0.041,0.264,0.112
			c0.07,0.071,0.109,0.167,0.108,0.266L35.83,62.92l20.169-11.65l-0.037-4.317c-0.001-0.1,0.038-0.195,0.108-0.267
			c0.07-0.071,0.165-0.111,0.265-0.112l0.91-0.006c0,0,0.001,0,0.002,0c0.206,0,0.373,0.166,0.375,0.372l0.045,5.069
			c0.001,0.135-0.07,0.261-0.188,0.328l-21.67,12.507l-0.003,0.306c-0.001,0.132-0.073,0.254-0.188,0.32
			c-0.115,0.067-0.256,0.067-0.372,0.002l-0.263-0.148l-0.275,0.16C34.65,65.517,34.585,65.533,34.521,65.533z M13.055,51.796
			l21.659,12.505c0.087,0.05,0.149,0.133,0.175,0.228c0.061-0.016,0.125-0.016,0.186,0c0.025-0.095,0.088-0.177,0.175-0.228
			l21.666-12.505l-0.04-4.476l-0.16,0.001l0.036,4.16c0.001,0.135-0.07,0.261-0.188,0.328L35.638,63.896
			c-0.117,0.067-0.26,0.067-0.376,0c-0.116-0.068-0.187-0.193-0.186-0.327l0.028-3.634l-0.16-0.001l-0.036,3.648
			c-0.001,0.134-0.073,0.256-0.189,0.322c-0.116,0.065-0.258,0.065-0.374-0.001L13.406,51.809c-0.117-0.067-0.188-0.193-0.188-0.328
			l0.036-4.16l-0.159-0.001L13.055,51.796z"/>
	</g>
	<g>
		<path d="M34.631,59.738l-22.148-12.75l12.042-6.908l0.449,0.786l-10.665,6.122L35.08,58.946L34.631,59.738z"/>
		<path d="M34.631,60.113c-0.065,0-0.13-0.017-0.187-0.05l-22.148-12.75c-0.116-0.067-0.188-0.191-0.188-0.326
			c0-0.135,0.072-0.258,0.188-0.325l12.042-6.908c0.085-0.05,0.188-0.064,0.285-0.037c0.096,0.026,0.178,0.089,0.228,0.176
			l0.449,0.786c0.103,0.18,0.041,0.408-0.139,0.511l-10.099,5.797l20.205,11.632c0.179,0.103,0.241,0.331,0.14,0.51l-0.448,0.793
			c-0.049,0.087-0.131,0.151-0.228,0.177C34.697,60.109,34.664,60.113,34.631,60.113z M13.235,46.988L34.49,59.224l0.079-0.14
			L14.121,47.313c-0.116-0.067-0.188-0.191-0.188-0.325c0-0.134,0.072-0.258,0.188-0.325l10.34-5.936l-0.077-0.135L13.235,46.988z"
			/>
	</g>
	<g>
		<path d="M35.047,59.979l-0.416-0.24l0.292-0.507l-0.104-0.176l21.049-12.068L44.69,40.554l0.455-0.793l12.549,7.227L35.047,59.979
			z M34.897,41.282l-10.814-6.226l10.847-6.22l10.813,6.226L34.897,41.282z M25.909,35.056l8.988,5.173l9.02-5.173l-8.987-5.173
			L25.909,35.056z"/>
		<path d="M35.047,60.354c-0.065,0-0.129-0.017-0.188-0.05l-0.416-0.24c-0.179-0.104-0.241-0.333-0.137-0.512l0.183-0.318
			c-0.045-0.084-0.057-0.182-0.032-0.274c0.025-0.097,0.089-0.179,0.176-0.229l20.482-11.743L44.503,40.88
			c-0.179-0.104-0.241-0.333-0.138-0.512l0.455-0.793c0.049-0.086,0.131-0.149,0.228-0.175c0.096-0.027,0.198-0.013,0.285,0.037
			l12.549,7.227c0.116,0.067,0.188,0.191,0.188,0.326c0,0.135-0.072,0.258-0.188,0.325L35.235,60.306
			C35.176,60.337,35.111,60.354,35.047,60.354z M35.297,59.214c0.003,0.07-0.013,0.142-0.05,0.205l-0.01,0.019l21.705-12.45
			l-11.658-6.714l-0.082,0.143l10.853,6.247c0.116,0.067,0.188,0.191,0.188,0.326c0,0.135-0.072,0.258-0.188,0.325L35.297,59.214z
			 M34.897,41.657c-0.064,0-0.129-0.017-0.187-0.05l-10.814-6.226c-0.116-0.067-0.188-0.191-0.188-0.326
			c0-0.135,0.072-0.258,0.188-0.325l10.847-6.22c0.115-0.066,0.258-0.066,0.374,0l10.813,6.226c0.116,0.067,0.188,0.191,0.188,0.326
			c0,0.135-0.072,0.258-0.188,0.325l-10.846,6.219C35.026,41.64,34.962,41.657,34.897,41.657z M24.836,35.057l10.062,5.792
			l10.092-5.787l-10.061-5.793L24.836,35.057z M34.897,40.604c-0.064,0-0.129-0.017-0.187-0.05l-8.988-5.173
			c-0.116-0.067-0.188-0.191-0.188-0.326c0-0.135,0.072-0.258,0.188-0.325l9.021-5.173c0.115-0.066,0.258-0.066,0.374,0l8.987,5.173
			c0.116,0.067,0.188,0.191,0.188,0.326c0,0.135-0.072,0.258-0.188,0.325l-9.02,5.173C35.026,40.588,34.962,40.604,34.897,40.604z
			 M26.662,35.057l8.236,4.74l8.266-4.741l-8.235-4.74L26.662,35.057z"/>
	</g>
	<g>
		<path d="M34.423,53.318l-0.02-12.829l10.84-6.258l0.02,12.829L34.423,53.318z M35.307,41.015l0.02,10.729l9.026-5.212
			l-0.02-10.729L35.307,41.015z"/>
		<path d="M34.423,53.693c-0.064,0-0.129-0.017-0.187-0.05c-0.116-0.067-0.188-0.19-0.188-0.324l-0.02-12.829
			c0-0.134,0.071-0.258,0.188-0.325l10.84-6.258c0.116-0.067,0.259-0.068,0.375,0c0.116,0.067,0.188,0.19,0.188,0.324l0.02,12.829
			c0,0.134-0.071,0.258-0.188,0.325l-10.84,6.258C34.552,53.676,34.488,53.693,34.423,53.693z M34.779,40.705l0.018,11.963
			l10.09-5.826l-0.018-11.963L34.779,40.705z M35.326,52.12c-0.064,0-0.129-0.017-0.187-0.05c-0.116-0.066-0.188-0.19-0.188-0.324
			l-0.02-10.729c0-0.134,0.071-0.258,0.188-0.325l9.026-5.212c0.116-0.067,0.259-0.068,0.375,0c0.116,0.066,0.188,0.19,0.188,0.324
			l0.02,10.729c0,0.134-0.071,0.258-0.188,0.325l-9.026,5.212C35.456,52.103,35.391,52.12,35.326,52.12z M35.682,41.232l0.018,9.864
			l8.277-4.779l-0.018-9.864L35.682,41.232z"/>
	</g>
	<g>
		<path d="M35.313,53.311l-10.847-6.258l0.02-12.829l10.847,6.258L35.313,53.311z M25.383,46.526l9.027,5.212l0.019-10.729
			l-9.026-5.212L25.383,46.526z"/>
		<path d="M35.313,53.686c-0.065,0-0.129-0.017-0.188-0.05l-10.847-6.258c-0.116-0.067-0.188-0.191-0.188-0.325l0.02-12.829
			c0-0.134,0.072-0.257,0.188-0.324c0.117-0.068,0.259-0.067,0.375,0l10.847,6.258c0.116,0.067,0.188,0.191,0.188,0.325
			l-0.02,12.829c0,0.134-0.072,0.257-0.188,0.324C35.443,53.67,35.378,53.686,35.313,53.686z M24.842,46.837l10.097,5.826
			l0.018-11.964L24.86,34.874L24.842,46.837z M34.41,52.113c-0.065,0-0.129-0.017-0.188-0.05l-9.027-5.212
			c-0.116-0.067-0.188-0.191-0.188-0.325l0.02-10.729c0-0.134,0.072-0.258,0.188-0.324c0.116-0.068,0.259-0.067,0.375,0l9.026,5.212
			c0.116,0.067,0.188,0.191,0.188,0.325l-0.019,10.729c0,0.134-0.072,0.258-0.188,0.324C34.54,52.097,34.475,52.113,34.41,52.113z
			 M25.758,46.31l8.278,4.779l0.017-9.864l-8.277-4.779L25.758,46.31z"/>
	</g>
	<g>
		<path d="M34.897,17.659l-10.814-6.226L34.93,5.207l10.813,6.226L34.897,17.659z M25.909,11.433l8.988,5.173l9.02-5.173L34.93,6.26
			L25.909,11.433z"/>
		<path d="M34.897,18.034c-0.064,0-0.129-0.017-0.187-0.05l-10.814-6.226c-0.116-0.067-0.188-0.191-0.188-0.325
			c0-0.134,0.072-0.258,0.188-0.325l10.847-6.226c0.115-0.066,0.258-0.066,0.374,0l10.813,6.226
			c0.116,0.067,0.188,0.191,0.188,0.326c0,0.134-0.072,0.258-0.188,0.325l-10.846,6.226C35.026,18.017,34.962,18.034,34.897,18.034z
			 M24.835,11.434l10.063,5.792l10.093-5.793L34.929,5.64L24.835,11.434z M34.897,16.981c-0.064,0-0.129-0.017-0.187-0.05
			l-8.988-5.173c-0.116-0.067-0.188-0.191-0.188-0.326c0-0.135,0.072-0.258,0.188-0.325l9.021-5.173
			c0.115-0.066,0.258-0.066,0.374,0l8.987,5.173c0.116,0.067,0.188,0.191,0.188,0.326c0,0.135-0.072,0.258-0.188,0.325l-9.02,5.173
			C35.026,16.964,34.962,16.981,34.897,16.981z M26.662,11.434l8.236,4.74l8.266-4.741l-8.235-4.74L26.662,11.434z"/>
	</g>
	<g>
		<path d="M34.423,29.694l-0.02-12.829l10.84-6.265l0.02,12.829L34.423,29.694z M35.307,17.392l0.02,10.729l9.026-5.212
			l-0.02-10.729L35.307,17.392z"/>
		<path d="M34.423,30.069c-0.064,0-0.129-0.017-0.187-0.05c-0.116-0.066-0.188-0.19-0.188-0.324l-0.02-12.829
			c0-0.134,0.071-0.258,0.188-0.325l10.84-6.265c0.116-0.067,0.259-0.067,0.375,0c0.116,0.066,0.188,0.19,0.188,0.324l0.02,12.829
			c0,0.134-0.071,0.258-0.188,0.325l-10.84,6.265C34.552,30.053,34.488,30.069,34.423,30.069z M34.779,17.082l0.018,11.963
			l10.09-5.832L44.869,11.25L34.779,17.082z M35.326,28.497c-0.064,0-0.129-0.017-0.187-0.05c-0.116-0.066-0.188-0.19-0.188-0.324
			l-0.02-10.729c0-0.134,0.071-0.258,0.188-0.325l9.026-5.212c0.116-0.067,0.259-0.067,0.375,0c0.116,0.066,0.188,0.19,0.188,0.324
			l0.02,10.729c0,0.134-0.071,0.258-0.188,0.325l-9.026,5.212C35.456,28.48,35.391,28.497,35.326,28.497z M35.682,17.609
			l0.018,9.864l8.277-4.779l-0.018-9.864L35.682,17.609z"/>
	</g>
	<g>
		<path d="M35.313,29.682l-10.847-6.259l0.02-12.829l10.847,6.258L35.313,29.682z M25.383,22.897l9.027,5.212l0.019-10.729
			l-9.026-5.212L25.383,22.897z"/>
		<path d="M35.313,30.057c-0.065,0-0.129-0.017-0.188-0.05l-10.847-6.259c-0.116-0.067-0.188-0.191-0.188-0.325l0.02-12.829
			c0-0.134,0.072-0.257,0.188-0.324c0.117-0.068,0.259-0.067,0.375,0l10.847,6.258c0.116,0.067,0.188,0.191,0.188,0.325
			l-0.02,12.829c0,0.134-0.072,0.257-0.188,0.324C35.443,30.04,35.378,30.057,35.313,30.057z M24.842,23.207l10.097,5.826
			l0.018-11.964L24.86,11.243L24.842,23.207z M34.41,28.484c-0.065,0-0.129-0.017-0.188-0.05l-9.027-5.212
			c-0.116-0.067-0.188-0.191-0.188-0.325l0.02-10.73c0-0.134,0.072-0.258,0.188-0.324c0.116-0.067,0.259-0.067,0.375,0l9.026,5.212
			c0.116,0.067,0.188,0.191,0.188,0.325l-0.019,10.729c0,0.134-0.072,0.258-0.188,0.324C34.54,28.467,34.475,28.484,34.41,28.484z
			 M25.758,22.681l8.278,4.779l0.017-9.864l-8.277-4.78L25.758,22.681z"/>
	</g>
	<g>
		<path d="M13.002,13.35h0.91v11.984h-0.91V13.35z M13.002,28.817h0.91v3.679h-0.91V28.817z M17.988,20.141h0.909v19.373h-0.909
			V20.141z M52.216,11.81h0.91v16.656h-0.91V11.81z M55.999,24.924h0.91v7.571h-0.91V24.924z M52.216,31.046h0.91v9.456h-0.91
			V31.046z M55.999,18.218h0.91v4.276h-0.91V18.218z"/>
		<path d="M53.126,40.877h-0.91c-0.207,0-0.375-0.168-0.375-0.375v-9.456c0-0.207,0.168-0.375,0.375-0.375h0.91
			c0.207,0,0.375,0.168,0.375,0.375v9.456C53.501,40.709,53.333,40.877,53.126,40.877z M52.591,40.127h0.16v-8.706h-0.16V40.127z
			 M18.897,39.889h-0.909c-0.207,0-0.375-0.168-0.375-0.375V20.141c0-0.207,0.168-0.375,0.375-0.375h0.909
			c0.207,0,0.375,0.168,0.375,0.375v19.373C19.272,39.721,19.104,39.889,18.897,39.889z M18.363,39.139h0.159V20.516h-0.159V39.139z
			 M56.909,32.871h-0.91c-0.207,0-0.375-0.168-0.375-0.375v-7.571c0-0.207,0.168-0.375,0.375-0.375h0.91
			c0.207,0,0.375,0.168,0.375,0.375v7.571C57.284,32.703,57.116,32.871,56.909,32.871z M56.374,32.121h0.16V25.3h-0.16V32.121z
			 M13.912,32.871h-0.91c-0.207,0-0.375-0.168-0.375-0.375v-3.679c0-0.207,0.168-0.375,0.375-0.375h0.91
			c0.207,0,0.375,0.168,0.375,0.375v3.679C14.287,32.703,14.119,32.871,13.912,32.871z M13.377,32.121h0.16v-2.929h-0.16V32.121z
			 M53.126,28.841h-0.91c-0.207,0-0.375-0.168-0.375-0.375V11.81c0-0.207,0.168-0.375,0.375-0.375h0.91
			c0.207,0,0.375,0.168,0.375,0.375v16.656C53.501,28.673,53.333,28.841,53.126,28.841z M52.591,28.091h0.16V12.185h-0.16V28.091z
			 M13.912,25.709h-0.91c-0.207,0-0.375-0.168-0.375-0.375V13.35c0-0.207,0.168-0.375,0.375-0.375h0.91
			c0.207,0,0.375,0.168,0.375,0.375v11.984C14.287,25.541,14.119,25.709,13.912,25.709z M13.377,24.959h0.16V13.725h-0.16V24.959z
			 M56.909,22.869h-0.91c-0.207,0-0.375-0.168-0.375-0.375v-4.276c0-0.207,0.168-0.375,0.375-0.375h0.91
			c0.207,0,0.375,0.168,0.375,0.375v4.276C57.284,22.701,57.116,22.869,56.909,22.869z M56.374,22.119h0.16v-3.526h-0.16V22.119z"/>
	</g>
	<g>
		<path d="M34.897,29.37l-10.814-6.226l10.847-6.226l10.813,6.226L34.897,29.37z M25.909,23.15l8.988,5.173l9.02-5.173l-8.987-5.173
			L25.909,23.15z"/>
		<path d="M34.897,29.745c-0.064,0-0.129-0.017-0.187-0.05l-10.814-6.226c-0.116-0.067-0.188-0.191-0.188-0.326
			c0-0.134,0.072-0.258,0.188-0.325l10.847-6.226c0.115-0.066,0.258-0.066,0.374,0l10.813,6.226
			c0.116,0.067,0.188,0.191,0.188,0.325c0,0.134-0.072,0.258-0.188,0.325l-10.846,6.226C35.026,29.728,34.962,29.745,34.897,29.745z
			 M24.835,23.144l10.063,5.793l10.093-5.794l-10.062-5.792L24.835,23.144z M34.897,28.698c-0.064,0-0.129-0.017-0.187-0.05
			l-8.988-5.173c-0.116-0.067-0.188-0.191-0.188-0.326c0-0.135,0.072-0.258,0.188-0.325l9.021-5.173
			c0.115-0.066,0.258-0.066,0.374,0l8.987,5.173c0.116,0.067,0.188,0.191,0.188,0.326c0,0.135-0.072,0.258-0.188,0.325l-9.02,5.173
			C35.026,28.682,34.962,28.698,34.897,28.698z M26.662,23.151l8.236,4.74l8.266-4.741l-8.235-4.74L26.662,23.151z"/>
	</g>
	<g>
		<path d="M34.423,41.412l-0.025-12.835l10.846-6.258l0.02,12.829L34.423,41.412z M35.307,29.103l0.02,10.729l9.026-5.212
			l-0.02-10.729L35.307,29.103z"/>
		<path d="M34.423,41.787c-0.064,0-0.129-0.017-0.187-0.05c-0.116-0.067-0.188-0.19-0.188-0.324l-0.025-12.835
			c0-0.134,0.071-0.259,0.188-0.326l10.846-6.258c0.116-0.067,0.258-0.068,0.375,0c0.116,0.067,0.188,0.19,0.188,0.324l0.02,12.829
			c0,0.134-0.071,0.258-0.188,0.325l-10.84,6.265C34.552,41.77,34.488,41.787,34.423,41.787z M34.773,28.793l0.023,11.97
			l10.091-5.832l-0.018-11.963L34.773,28.793z M35.326,40.208c-0.064,0-0.129-0.017-0.187-0.05c-0.116-0.066-0.188-0.19-0.188-0.324
			l-0.02-10.729c0-0.134,0.071-0.258,0.188-0.325l9.026-5.212c0.116-0.067,0.259-0.068,0.375,0c0.116,0.066,0.188,0.19,0.188,0.324
			l0.02,10.729c0,0.134-0.071,0.258-0.188,0.325l-9.026,5.212C35.456,40.191,35.391,40.208,35.326,40.208z M35.682,29.319
			l0.018,9.864l8.277-4.78l-0.018-9.864L35.682,29.319z"/>
	</g>
	<g>
		<path d="M35.313,41.399l-10.84-6.258l0.02-12.829l10.846,6.259L35.313,41.399z M25.383,34.614l9.027,5.212l0.019-10.73
			l-9.026-5.211L25.383,34.614z"/>
		<path d="M35.313,41.774c-0.065,0-0.129-0.017-0.188-0.05l-10.84-6.258c-0.116-0.067-0.188-0.191-0.188-0.325l0.02-12.829
			c0-0.134,0.072-0.257,0.188-0.324c0.117-0.068,0.259-0.067,0.375,0l10.846,6.259c0.116,0.067,0.188,0.191,0.188,0.326
			l-0.025,12.828c0,0.134-0.072,0.257-0.188,0.324C35.443,41.757,35.378,41.774,35.313,41.774z M24.849,34.924L34.94,40.75
			l0.023-11.963l-10.096-5.826L24.849,34.924z M34.41,40.201c-0.065,0-0.129-0.017-0.188-0.05l-9.027-5.212
			c-0.116-0.067-0.188-0.191-0.188-0.325l0.02-10.729c0-0.134,0.072-0.258,0.188-0.324c0.116-0.068,0.259-0.067,0.375,0l9.026,5.211
			c0.116,0.067,0.188,0.191,0.188,0.325l-0.019,10.73c0,0.134-0.072,0.258-0.188,0.324C34.54,40.185,34.475,40.201,34.41,40.201z
			 M25.758,34.398l8.278,4.78l0.017-9.865l-8.277-4.779L25.758,34.398z"/>
	</g>
</g>
</svg>
