<?xml version="1.0" encoding="utf-8"?>
<!-- Generator: Adobe Illustrator 16.0.0, SVG Export Plug-In . SVG Version: 6.00 Build 0)  -->
<!DOCTYPE svg PUBLIC "-//W3C//DTD SVG 1.1//EN" "http://www.w3.org/Graphics/SVG/1.1/DTD/svg11.dtd">
<svg version="1.1" id="图层_1" xmlns="http://www.w3.org/2000/svg" xmlns:xlink="http://www.w3.org/1999/xlink" x="0px" y="0px"
	 width="68px" height="68px" viewBox="0 0 68 68" enable-background="new 0 0 68 68" xml:space="preserve">
<g>
	<g>
		<g>
			<g>
				<g>
					<defs>
						<rect id="SVGID_1_" x="11.91" y="11.113" width="44.422" height="44.421"/>
					</defs>
					<clipPath id="SVGID_2_">
						<use xlink:href="#SVGID_1_"  overflow="visible"/>
					</clipPath>
					<path clip-path="url(#SVGID_2_)" d="M42.671,37.457c-1.905-1.266-4.027-2.235-6.316-2.787c4.448-1.83,7.6-6.2,7.6-11.301
						c0-6.741-5.487-12.223-12.228-12.223c-6.743,0-12.226,5.482-12.226,12.223c0,5.101,3.145,9.471,7.593,11.301
						c-8.697,2.095-15.19,9.92-15.19,19.256c0,0.763,0.621,1.385,1.385,1.385c0.771,0,1.388-0.622,1.388-1.385
						c0-9.403,7.651-17.054,17.054-17.054c3.271,0,6.326,0.947,8.932,2.555L42.671,37.457z M22.272,23.369
						c0-5.212,4.238-9.452,9.456-9.452c5.212,0,9.455,4.24,9.455,9.452s-4.243,9.455-9.455,9.455
						C26.51,32.825,22.272,28.581,22.272,23.369L22.272,23.369z"/>
				</g>
			</g>
		</g>
	</g>
	<path fill="#FFFFFF" d="M47.929,45.989c0,0.781-0.273,0.797-0.807,0.797H32.893c-0.532,0-0.965-0.016-0.965-0.797V32.2
		c0-0.781,0.433-1.414,0.965-1.414h14.229c0.533,0,0.807,0.633,0.807,1.414V45.989z"/>
	<g>
		<path d="M41.582,45.298v-6.582h1.638v2.063c0,0.456,0.394,0.849,0.851,0.849c0.453,0,0.851-0.394,0.851-0.849v-2.063h5.672
			c0.817,0,1.517-0.667,1.517-1.516v-2.488c0-0.819-0.666-1.517-1.517-1.517H35.455c-0.818,0-1.518,0.667-1.518,1.517v8.554
			c0,0.576,0.455,1.031,1.031,1.031S36,43.842,36,43.266v-4.55h1.031v2.487c0,0.698,0.576,1.244,1.244,1.244
			c0.695,0,1.241-0.576,1.241-1.244v-2.487h0.667v6.582c0,0.364,0.307,0.668,0.668,0.668C41.277,45.996,41.582,45.693,41.582,45.298
			L41.582,45.298z"/>
		<path d="M54.685,35.198h-1.306v-0.94c0-0.242-0.211-0.455-0.454-0.455h-0.243c-0.242,0-0.455,0.212-0.455,0.455
			c0,0.182,0.093,0.304,0.244,0.395v2.639c-0.123,0.091-0.244,0.212-0.244,0.395c0,0.243,0.214,0.455,0.455,0.455h0.243
			c0.243,0,0.454-0.212,0.454-0.455v-1.274h0.698v5.126l-11.771,4.792c-0.241,0.091-0.362,0.304-0.362,0.577v2.82h-0.242
			c-0.365,0-0.697,0.304-0.697,0.698v5.764c0,0.363,0.303,0.697,0.697,0.697h1.817c0.364,0,0.697-0.304,0.697-0.697v-5.764
			c0-0.364-0.304-0.698-0.697-0.698h-0.396v-2.396l11.771-4.762c0.242-0.091,0.363-0.303,0.363-0.576v-6.188
			C55.291,35.47,55.018,35.198,54.685,35.198L54.685,35.198z"/>
	</g>
</g>
</svg>
