<?xml version="1.0" encoding="utf-8"?>
<!-- Generator: Adobe Illustrator 16.0.0, SVG Export Plug-In . SVG Version: 6.00 Build 0)  -->
<!DOCTYPE svg PUBLIC "-//W3C//DTD SVG 1.1//EN" "http://www.w3.org/Graphics/SVG/1.1/DTD/svg11.dtd">
<svg version="1.1" id="图层_1" xmlns="http://www.w3.org/2000/svg" xmlns:xlink="http://www.w3.org/1999/xlink" x="0px" y="0px"
	 width="68px" height="68px" viewBox="0 0 68 68" enable-background="new 0 0 68 68" xml:space="preserve">
<g>
	<path fill="#B6F5FF" d="M24.545,33.635l-0.063-11.449l9.842-5.806l0.06,11.455L24.545,33.635z"/>
	<path fill="#B6F5FF" d="M44.088,22.684l-9.839,5.8l-0.063-11.449"/>
	<path fill="#B6F5FF" d="M34.157,27.957l0.021,11.776L44.115,34l-0.021-11.782L34.157,27.957z"/>
	<g>
		<path d="M33.826,64.271l0.006-0.533L11.983,51.125l0.046-5.069l0.909,0.006l-0.039,4.536l20.938,12.094l0.039-4.023l0.909,0.007
			l-0.031,4.009L55.68,50.598l-0.038-4.536l0.908-0.006l0.045,5.069L34.742,63.74l-0.006,0.52l-0.449-0.253L33.826,64.271z"/>
		<path d="M33.826,64.646c-0.065,0-0.131-0.017-0.188-0.051c-0.116-0.068-0.188-0.193-0.188-0.328l0.004-0.313L11.795,51.45
			c-0.117-0.067-0.188-0.193-0.188-0.328l0.046-5.069c0.002-0.206,0.169-0.372,0.375-0.372c0.001,0,0.002,0,0.003,0l0.909,0.006
			c0.1,0,0.192,0.041,0.265,0.112c0.069,0.071,0.108,0.167,0.107,0.267l-0.037,4.317l20.191,11.664l0.033-3.38
			c0.002-0.206,0.17-0.372,0.375-0.372c0.001,0,0.002,0,0.003,0l0.909,0.007c0.102,0.001,0.194,0.041,0.265,0.112
			c0.069,0.071,0.108,0.167,0.107,0.266l-0.026,3.354l20.169-11.65l-0.035-4.317c-0.001-0.1,0.038-0.195,0.105-0.267
			c0.07-0.071,0.165-0.111,0.267-0.112l0.908-0.006c0.001,0,0.002,0,0.003,0c0.206,0,0.373,0.166,0.375,0.372l0.045,5.069
			c0.003,0.135-0.068,0.261-0.188,0.328l-21.67,12.507l-0.004,0.306c-0.002,0.132-0.073,0.254-0.188,0.32
			c-0.115,0.067-0.256,0.067-0.372,0.002l-0.263-0.148l-0.275,0.16C33.956,64.631,33.89,64.646,33.826,64.646z M12.36,50.91
			l21.659,12.505c0.087,0.05,0.147,0.133,0.175,0.228c0.061-0.016,0.125-0.016,0.186,0c0.025-0.095,0.088-0.177,0.177-0.228
			L56.221,50.91l-0.039-4.476l-0.16,0.001l0.036,4.16c0.001,0.135-0.07,0.261-0.188,0.328L34.943,63.01
			c-0.116,0.068-0.262,0.066-0.376,0c-0.116-0.068-0.188-0.193-0.188-0.327l0.028-3.634l-0.16-0.001l-0.035,3.648
			c-0.001,0.134-0.071,0.256-0.188,0.322c-0.115,0.065-0.258,0.066-0.373-0.001L12.711,50.923c-0.115-0.067-0.188-0.193-0.188-0.328
			l0.036-4.16l-0.159-0.001L12.36,50.91z"/>
	</g>
	<g>
		<path d="M33.936,58.852l-22.148-12.75l12.042-6.908l0.449,0.786l-10.665,6.122L34.384,58.06L33.936,58.852z"/>
		<path d="M33.936,59.227c-0.065,0-0.13-0.017-0.188-0.05l-22.146-12.75c-0.116-0.067-0.188-0.191-0.188-0.326
			s0.072-0.258,0.188-0.325l12.042-6.908c0.087-0.05,0.188-0.064,0.283-0.037c0.098,0.026,0.18,0.089,0.229,0.176l0.449,0.786
			c0.103,0.18,0.041,0.408-0.141,0.511l-10.1,5.797L34.57,57.732c0.178,0.103,0.24,0.331,0.139,0.51l-0.448,0.793
			c-0.049,0.087-0.131,0.151-0.228,0.177C34.002,59.223,33.969,59.227,33.936,59.227z M12.541,46.102l21.255,12.236l0.079-0.14
			L13.426,46.427c-0.114-0.067-0.188-0.191-0.188-0.325s0.072-0.258,0.188-0.325l10.342-5.936l-0.077-0.135L12.541,46.102z"/>
	</g>
	<g>
		<path d="M34.352,59.093l-0.416-0.24l0.292-0.507l-0.104-0.176l21.049-12.068l-11.178-6.434l0.455-0.793l12.549,7.227
			L34.352,59.093z M34.203,40.396l-10.814-6.226l10.847-6.22l10.813,6.226L34.203,40.396z M25.214,34.169l8.988,5.173l9.021-5.173
			l-8.987-5.173L25.214,34.169z"/>
		<path d="M34.352,59.468c-0.064,0-0.13-0.017-0.188-0.05l-0.416-0.24c-0.18-0.104-0.241-0.333-0.138-0.512l0.184-0.318
			c-0.045-0.084-0.057-0.182-0.03-0.274c0.023-0.097,0.089-0.179,0.176-0.229l20.48-11.743l-10.61-6.108
			c-0.181-0.104-0.241-0.333-0.14-0.512l0.455-0.793c0.05-0.086,0.132-0.149,0.229-0.175c0.097-0.025,0.197-0.012,0.285,0.037
			l12.549,7.227c0.116,0.067,0.188,0.191,0.188,0.326c0,0.135-0.07,0.258-0.188,0.325L34.54,59.419
			C34.481,59.451,34.417,59.468,34.352,59.468z M34.603,58.328c0.003,0.07-0.016,0.142-0.05,0.205l-0.013,0.019l21.704-12.45
			l-11.657-6.714l-0.082,0.143l10.854,6.247c0.116,0.067,0.188,0.191,0.188,0.326c0,0.135-0.07,0.258-0.188,0.325L34.603,58.328z
			 M34.203,40.771c-0.063,0-0.129-0.017-0.188-0.05l-10.814-6.226c-0.116-0.067-0.188-0.191-0.188-0.326
			c0-0.135,0.07-0.258,0.188-0.325l10.847-6.22c0.115-0.066,0.259-0.066,0.374,0l10.813,6.226c0.116,0.067,0.188,0.191,0.188,0.326
			c0,0.135-0.07,0.258-0.188,0.325L34.389,40.72C34.332,40.753,34.267,40.771,34.203,40.771z M24.141,34.17l10.062,5.792
			l10.093-5.787l-10.061-5.793L24.141,34.17z M34.203,39.718c-0.063,0-0.129-0.017-0.188-0.05l-8.988-5.173
			c-0.116-0.067-0.188-0.191-0.188-0.326c0-0.135,0.072-0.258,0.188-0.325l9.021-5.173c0.115-0.066,0.259-0.066,0.374,0l8.987,5.173
			c0.116,0.067,0.188,0.191,0.188,0.326c0,0.135-0.072,0.258-0.188,0.325l-9.02,5.173C34.332,39.702,34.267,39.718,34.203,39.718z
			 M25.967,34.17l8.235,4.74l8.267-4.741l-8.232-4.74L25.967,34.17z"/>
	</g>
	<g>
		<path d="M33.728,52.432l-0.021-12.829l10.84-6.258l0.021,12.829L33.728,52.432z M34.612,40.128l0.02,10.729l9.026-5.211
			l-0.021-10.729L34.612,40.128z"/>
		<path d="M33.728,52.807c-0.064,0-0.129-0.017-0.188-0.05c-0.116-0.067-0.188-0.19-0.188-0.324l-0.021-12.829
			c0-0.134,0.071-0.258,0.188-0.325l10.84-6.258c0.115-0.067,0.258-0.067,0.375,0c0.116,0.067,0.188,0.19,0.188,0.324l0.021,12.829
			c0,0.134-0.071,0.258-0.188,0.325l-10.84,6.258C33.858,52.79,33.792,52.807,33.728,52.807z M34.083,39.818l0.021,11.963
			l10.091-5.826l-0.021-11.963L34.083,39.818z M34.631,51.233c-0.063,0-0.129-0.017-0.188-0.05c-0.115-0.066-0.188-0.19-0.188-0.324
			l-0.02-10.729c0-0.134,0.071-0.258,0.188-0.325l9.026-5.212c0.115-0.067,0.258-0.067,0.375,0c0.115,0.066,0.188,0.19,0.188,0.324
			l0.021,10.729c0,0.134-0.071,0.258-0.188,0.325l-9.025,5.212C34.762,51.217,34.696,51.233,34.631,51.233z M34.987,40.346
			l0.019,9.864l8.277-4.779l-0.019-9.864L34.987,40.346z"/>
	</g>
	<g>
		<path d="M34.619,52.425l-10.847-6.258l0.02-12.829l10.849,6.258L34.619,52.425z M24.688,45.641l9.025,5.212l0.021-10.729
			l-9.026-5.212L24.688,45.641z"/>
		<path d="M34.619,52.8c-0.063,0-0.13-0.017-0.188-0.05l-10.849-6.258c-0.116-0.067-0.188-0.191-0.188-0.325l0.02-12.829
			c0-0.134,0.071-0.257,0.188-0.324c0.116-0.067,0.26-0.067,0.375,0l10.847,6.258c0.116,0.067,0.188,0.191,0.188,0.325
			l-0.021,12.829c0,0.134-0.071,0.257-0.188,0.324C34.748,52.784,34.683,52.8,34.619,52.8z M24.147,45.951l10.098,5.826
			l0.021-11.964l-10.1-5.825L24.147,45.951z M33.715,51.227c-0.063,0-0.13-0.017-0.188-0.05L24.5,45.965
			c-0.116-0.067-0.188-0.191-0.188-0.325l0.02-10.729c0-0.134,0.072-0.258,0.188-0.324c0.117-0.067,0.26-0.067,0.375,0l9.024,5.212
			c0.116,0.067,0.188,0.191,0.188,0.325l-0.021,10.729c0,0.134-0.07,0.258-0.188,0.324C33.844,51.21,33.78,51.227,33.715,51.227z
			 M25.063,45.424l8.276,4.779l0.02-9.864l-8.277-4.779L25.063,45.424z"/>
	</g>
	<g>
		<path d="M34.203,16.772L23.39,10.547l10.847-6.226l10.813,6.226L34.203,16.772z M25.214,10.547l8.988,5.173l9.021-5.173
			l-8.987-5.173L25.214,10.547z"/>
		<path d="M34.203,17.147c-0.063,0-0.129-0.017-0.188-0.05l-10.814-6.226c-0.116-0.067-0.188-0.191-0.188-0.325
			c0-0.134,0.07-0.258,0.188-0.325l10.847-6.226c0.115-0.066,0.259-0.066,0.374,0l10.813,6.226c0.116,0.067,0.188,0.191,0.188,0.326
			c0,0.134-0.07,0.258-0.188,0.325l-10.846,6.226C34.332,17.131,34.267,17.147,34.203,17.147z M24.141,10.548l10.062,5.792
			l10.094-5.793L34.235,4.753L24.141,10.548z M34.203,16.095c-0.063,0-0.129-0.017-0.188-0.05l-8.988-5.173
			c-0.116-0.067-0.188-0.191-0.188-0.326c0-0.135,0.072-0.258,0.188-0.325l9.021-5.173c0.115-0.066,0.259-0.066,0.374,0l8.987,5.173
			c0.116,0.067,0.188,0.191,0.188,0.326c0,0.135-0.072,0.258-0.188,0.325l-9.02,5.173C34.332,16.079,34.267,16.095,34.203,16.095z
			 M25.967,10.548l8.235,4.74l8.267-4.741l-8.232-4.74L25.967,10.548z"/>
	</g>
	<g>
		<path d="M33.728,28.808l-0.021-12.829l10.84-6.265l0.021,12.829L33.728,28.808z M34.612,16.506l0.02,10.729l9.026-5.211
			l-0.021-10.729L34.612,16.506z"/>
		<path d="M33.728,29.183c-0.064,0-0.129-0.017-0.188-0.05c-0.115-0.066-0.188-0.19-0.188-0.324l-0.021-12.829
			c0-0.134,0.071-0.258,0.188-0.325l10.84-6.265c0.115-0.067,0.258-0.067,0.375,0c0.115,0.066,0.188,0.19,0.188,0.324l0.021,12.829
			c0,0.134-0.071,0.258-0.188,0.325l-10.84,6.265C33.858,29.167,33.792,29.183,33.728,29.183z M34.083,16.196l0.021,11.963
			l10.091-5.832l-0.021-11.963L34.083,16.196z M34.631,27.61c-0.063,0-0.129-0.017-0.188-0.05c-0.115-0.066-0.188-0.19-0.188-0.324
			l-0.02-10.729c0-0.134,0.071-0.258,0.188-0.325l9.026-5.212c0.115-0.067,0.258-0.067,0.375,0c0.115,0.066,0.188,0.19,0.188,0.324
			l0.021,10.729c0,0.134-0.071,0.258-0.188,0.325l-9.025,5.212C34.762,27.594,34.696,27.61,34.631,27.61z M34.987,16.723
			l0.019,9.864l8.277-4.779l-0.019-9.864L34.987,16.723z"/>
	</g>
	<g>
		<path d="M34.619,28.795l-10.847-6.259l0.02-12.829l10.849,6.258L34.619,28.795z M24.688,22.011l9.025,5.212l0.021-10.729
			l-9.026-5.212L24.688,22.011z"/>
		<path d="M34.619,29.17c-0.063,0-0.13-0.017-0.188-0.05l-10.849-6.259c-0.116-0.067-0.188-0.191-0.188-0.325l0.02-12.829
			c0-0.134,0.071-0.257,0.188-0.324c0.116-0.067,0.26-0.067,0.375,0l10.847,6.258c0.116,0.067,0.188,0.191,0.188,0.325
			l-0.021,12.829c0,0.134-0.071,0.257-0.188,0.324C34.748,29.154,34.683,29.17,34.619,29.17z M24.147,22.321l10.098,5.826
			l0.021-11.964l-10.1-5.826L24.147,22.321z M33.715,27.598c-0.063,0-0.13-0.017-0.188-0.05L24.5,22.335
			c-0.116-0.067-0.188-0.191-0.188-0.325l0.02-10.73c0-0.134,0.072-0.258,0.188-0.324c0.117-0.067,0.26-0.067,0.375,0l9.024,5.212
			c0.116,0.067,0.188,0.191,0.188,0.325l-0.021,10.729c0,0.134-0.07,0.258-0.188,0.324C33.844,27.581,33.78,27.598,33.715,27.598z
			 M25.063,21.794l8.276,4.779l0.02-9.864l-8.277-4.78L25.063,21.794z"/>
	</g>
	<g>
		<path d="M34.203,28.483L23.39,22.258l10.847-6.226l10.813,6.226L34.203,28.483z M25.214,22.264l8.988,5.173l9.021-5.173
			l-8.987-5.173L25.214,22.264z"/>
		<path d="M34.203,28.858c-0.063,0-0.129-0.017-0.188-0.05l-10.814-6.226c-0.116-0.067-0.188-0.191-0.188-0.326
			c0-0.134,0.07-0.258,0.188-0.325l10.847-6.226c0.115-0.066,0.259-0.066,0.374,0l10.813,6.226c0.116,0.067,0.188,0.191,0.188,0.325
			c0,0.134-0.07,0.258-0.188,0.325l-10.846,6.226C34.332,28.842,34.267,28.858,34.203,28.858z M24.141,22.258l10.062,5.793
			l10.094-5.794l-10.062-5.792L24.141,22.258z M34.203,27.812c-0.063,0-0.129-0.017-0.188-0.05l-8.988-5.173
			c-0.116-0.067-0.188-0.191-0.188-0.326c0-0.135,0.072-0.258,0.188-0.325l9.021-5.173c0.115-0.066,0.259-0.066,0.374,0l8.987,5.173
			c0.116,0.067,0.188,0.191,0.188,0.326c0,0.135-0.072,0.258-0.188,0.325l-9.02,5.173C34.332,27.795,34.267,27.812,34.203,27.812z
			 M25.967,22.265l8.235,4.74l8.267-4.741l-8.232-4.74L25.967,22.265z"/>
	</g>
	<g>
		<path d="M33.728,40.525L33.703,27.69l10.846-6.258l0.021,12.829L33.728,40.525z M34.612,28.217l0.02,10.729l9.026-5.212
			l-0.021-10.729L34.612,28.217z"/>
		<path d="M33.728,40.9c-0.064,0-0.129-0.017-0.188-0.05c-0.115-0.067-0.188-0.19-0.188-0.324l-0.025-12.835
			c0-0.134,0.071-0.259,0.188-0.326l10.846-6.258c0.115-0.067,0.258-0.067,0.375,0c0.116,0.067,0.188,0.19,0.188,0.324l0.021,12.829
			c0,0.134-0.071,0.258-0.188,0.325l-10.84,6.265C33.858,40.884,33.792,40.9,33.728,40.9z M34.078,27.907l0.024,11.97l10.091-5.832
			l-0.021-11.963L34.078,27.907z M34.631,39.322c-0.063,0-0.129-0.017-0.188-0.05c-0.115-0.066-0.188-0.19-0.188-0.324l-0.02-10.729
			c0-0.134,0.071-0.258,0.188-0.325l9.026-5.212c0.115-0.067,0.258-0.067,0.375,0c0.115,0.066,0.188,0.19,0.188,0.324l0.021,10.729
			c0,0.134-0.071,0.258-0.188,0.325l-9.025,5.212C34.762,39.305,34.696,39.322,34.631,39.322z M34.987,28.433l0.019,9.864
			l8.277-4.78l-0.019-9.864L34.987,28.433z"/>
	</g>
	<g>
		<path d="M34.619,40.513l-10.84-6.258l0.02-12.829l10.848,6.259L34.619,40.513z M24.688,33.728l9.025,5.212l0.021-10.73
			l-9.026-5.211L24.688,33.728z"/>
		<path d="M34.619,40.888c-0.063,0-0.13-0.017-0.188-0.05L23.589,34.58c-0.114-0.067-0.188-0.191-0.188-0.325l0.02-12.829
			c0-0.134,0.071-0.257,0.188-0.324s0.26-0.067,0.375,0l10.846,6.259c0.116,0.067,0.188,0.191,0.188,0.326l-0.025,12.828
			c0,0.134-0.072,0.257-0.188,0.324C34.748,40.871,34.683,40.888,34.619,40.888z M24.154,34.038l10.091,5.826L34.269,27.9
			L24.17,22.075L24.154,34.038z M33.715,39.314c-0.063,0-0.13-0.017-0.188-0.05L24.5,34.053c-0.116-0.067-0.188-0.191-0.188-0.325
			l0.02-10.729c0-0.134,0.072-0.258,0.188-0.324c0.117-0.067,0.26-0.067,0.375,0l9.024,5.211c0.116,0.067,0.188,0.191,0.188,0.325
			l-0.021,10.73c0,0.134-0.07,0.258-0.188,0.324C33.844,39.299,33.78,39.314,33.715,39.314z M25.063,33.512l8.276,4.78l0.02-9.865
			l-8.277-4.779L25.063,33.512z"/>
	</g>
</g>
</svg>
