<?xml version="1.0" encoding="utf-8"?>
<!-- Generator: Adobe Illustrator 16.0.0, SVG Export Plug-In . SVG Version: 6.00 Build 0)  -->
<!DOCTYPE svg PUBLIC "-//W3C//DTD SVG 1.1//EN" "http://www.w3.org/Graphics/SVG/1.1/DTD/svg11.dtd">
<svg version="1.1" id="图层_1" xmlns="http://www.w3.org/2000/svg" xmlns:xlink="http://www.w3.org/1999/xlink" x="0px" y="0px"
	 width="68px" height="68px" viewBox="0 0 68 68" enable-background="new 0 0 68 68" xml:space="preserve">
<g>
	<g>
		<g>
			<path d="M32.587,64.705l0.006-0.533L10.744,51.558l0.046-5.069l0.909,0.006l-0.039,4.536l20.938,12.094l0.039-4.023l0.909,0.007
				l-0.031,4.009L54.44,51.031l-0.038-4.536l0.909-0.006l0.045,5.069L33.503,64.172l-0.006,0.52l-0.449-0.253L32.587,64.705z"/>
			<path d="M32.587,65.08c-0.065,0-0.131-0.017-0.189-0.051c-0.114-0.068-0.187-0.193-0.186-0.328l0.004-0.313L10.557,51.883
				c-0.117-0.067-0.188-0.193-0.188-0.328l0.046-5.069c0.002-0.206,0.169-0.372,0.375-0.372c0.001,0,0.002,0,0.003,0l0.909,0.006
				c0.1,0,0.192,0.041,0.265,0.112c0.069,0.071,0.108,0.167,0.107,0.267l-0.037,4.317L32.229,62.48l0.033-3.38
				c0.002-0.206,0.17-0.372,0.375-0.372c0.001,0,0.002,0,0.003,0l0.909,0.007c0.1,0.001,0.194,0.041,0.265,0.112
				c0.069,0.071,0.108,0.167,0.107,0.266l-0.026,3.354l20.169-11.65L54.028,46.5c-0.001-0.1,0.036-0.195,0.105-0.267
				c0.07-0.071,0.165-0.111,0.266-0.112l0.909-0.006c0.001,0,0.002,0,0.003,0c0.206,0,0.373,0.166,0.375,0.372l0.045,5.069
				c0.001,0.135-0.068,0.261-0.188,0.328l-21.67,12.507l-0.004,0.306c-0.002,0.132-0.073,0.254-0.188,0.32
				c-0.116,0.067-0.256,0.067-0.372,0.002l-0.263-0.148l-0.275,0.16C32.717,65.063,32.651,65.08,32.587,65.08z M11.121,51.342
				L32.78,63.847c0.087,0.05,0.147,0.133,0.175,0.228c0.061-0.016,0.125-0.016,0.186,0c0.025-0.095,0.088-0.177,0.175-0.228
				l21.666-12.505l-0.04-4.476l-0.158,0.001l0.034,4.16c0.001,0.135-0.068,0.261-0.188,0.328L33.704,63.442
				c-0.116,0.068-0.264,0.066-0.376,0c-0.116-0.068-0.188-0.193-0.188-0.327l0.028-3.634l-0.16-0.001l-0.035,3.648
				c-0.001,0.134-0.072,0.256-0.188,0.322c-0.115,0.065-0.259,0.066-0.373-0.001L11.473,51.356
				c-0.117-0.067-0.188-0.193-0.188-0.328l0.036-4.16l-0.159-0.001L11.121,51.342z"/>
		</g>
		<g>
			<path d="M32.697,59.285l-22.148-12.75l12.042-6.908l0.449,0.786l-10.665,6.122l20.771,11.958L32.697,59.285z"/>
			<path d="M32.697,59.66c-0.065,0-0.132-0.017-0.188-0.05L10.36,46.86c-0.114-0.067-0.188-0.191-0.188-0.326
				c0-0.135,0.072-0.258,0.188-0.325l12.044-6.908c0.088-0.05,0.188-0.063,0.283-0.037c0.098,0.026,0.18,0.089,0.229,0.176
				l0.449,0.786c0.103,0.18,0.041,0.408-0.141,0.511l-10.1,5.797l20.208,11.633c0.178,0.103,0.24,0.331,0.139,0.51l-0.448,0.793
				c-0.049,0.087-0.131,0.151-0.228,0.177C32.764,59.655,32.73,59.66,32.697,59.66z M11.302,46.535l21.255,12.236l0.079-0.14
				L12.188,46.86C12.071,46.793,12,46.669,12,46.535c0-0.134,0.072-0.258,0.188-0.325l10.341-5.936l-0.076-0.135L11.302,46.535z"/>
		</g>
		<g>
			<path d="M33.112,59.525l-0.416-0.24l0.293-0.507l-0.104-0.176l21.049-12.068L42.756,40.1l0.455-0.793l12.549,7.227L33.112,59.525
				z M32.964,40.828l-10.814-6.226l10.849-6.22l10.813,6.226L32.964,40.828z M23.976,34.603l8.988,5.173l9.02-5.173l-8.985-5.173
				L23.976,34.603z"/>
			<path d="M33.112,59.9c-0.063,0-0.131-0.017-0.188-0.05l-0.416-0.24c-0.18-0.104-0.241-0.333-0.138-0.512l0.184-0.318
				c-0.045-0.084-0.057-0.182-0.032-0.274c0.025-0.097,0.091-0.179,0.178-0.229l20.48-11.743l-10.61-6.108
				c-0.181-0.104-0.241-0.333-0.14-0.512l0.455-0.793c0.05-0.086,0.132-0.149,0.229-0.175c0.097-0.025,0.197-0.013,0.283,0.037
				l12.551,7.227c0.114,0.067,0.188,0.191,0.188,0.326c0,0.135-0.072,0.258-0.188,0.325L33.3,59.85
				C33.242,59.883,33.178,59.9,33.112,59.9z M33.364,58.76c0.003,0.07-0.016,0.142-0.052,0.205l-0.011,0.019l21.704-12.45
				L43.349,39.82l-0.082,0.143l10.854,6.247c0.116,0.067,0.188,0.191,0.188,0.326c0,0.135-0.07,0.258-0.188,0.325L33.364,58.76z
				 M32.964,41.203c-0.064,0-0.129-0.017-0.188-0.05l-10.813-6.226c-0.116-0.067-0.188-0.191-0.188-0.326
				c0-0.135,0.072-0.258,0.188-0.325l10.847-6.22c0.115-0.066,0.257-0.066,0.374,0l10.813,6.226
				c0.116,0.067,0.188,0.191,0.188,0.326c0,0.135-0.072,0.258-0.188,0.325l-10.848,6.219C33.093,41.187,33.028,41.203,32.964,41.203
				z M22.903,34.603l10.063,5.792l10.093-5.787l-10.061-5.793L22.903,34.603z M32.964,40.15c-0.064,0-0.129-0.017-0.188-0.05
				l-8.986-5.173c-0.116-0.067-0.188-0.191-0.188-0.326c0-0.135,0.072-0.258,0.188-0.325l9.021-5.173
				c0.115-0.066,0.257-0.066,0.374,0l8.987,5.173c0.116,0.067,0.188,0.191,0.188,0.326c0,0.135-0.07,0.258-0.188,0.325L33.149,40.1
				C33.093,40.134,33.028,40.15,32.964,40.15z M24.729,34.603l8.235,4.74l8.267-4.741l-8.232-4.74L24.729,34.603z"/>
		</g>
		<g>
			<path d="M32.489,52.864l-0.021-12.829l10.84-6.258l0.021,12.829L32.489,52.864z M33.373,40.562l0.02,10.729l9.026-5.212
				L42.397,35.35L33.373,40.562z"/>
			<path d="M32.489,53.239c-0.064,0-0.131-0.017-0.188-0.05c-0.116-0.067-0.188-0.19-0.188-0.324l-0.021-12.829
				c0-0.134,0.071-0.258,0.188-0.325l10.84-6.258c0.113-0.067,0.258-0.067,0.375,0c0.116,0.067,0.188,0.19,0.188,0.324l0.021,12.829
				c0,0.134-0.071,0.258-0.188,0.325l-10.84,6.258C32.619,53.222,32.554,53.239,32.489,53.239z M32.845,40.251l0.021,11.963
				l10.091-5.826l-0.021-11.963L32.845,40.251z M33.393,51.666c-0.063,0-0.129-0.017-0.188-0.05
				c-0.115-0.066-0.188-0.19-0.188-0.324l-0.02-10.729c0-0.134,0.069-0.258,0.188-0.325l9.026-5.212
				c0.115-0.067,0.258-0.067,0.375,0c0.115,0.066,0.188,0.19,0.188,0.324l0.021,10.729c0,0.134-0.071,0.258-0.188,0.325
				l-9.024,5.212C33.522,51.649,33.457,51.666,33.393,51.666z M33.748,40.778l0.019,9.864l8.277-4.779l-0.021-9.864L33.748,40.778z"
				/>
		</g>
		<g>
			<path d="M33.38,52.857l-10.847-6.258l0.02-12.829l10.847,6.258L33.38,52.857z M23.449,46.073l9.025,5.212l0.021-10.729
				l-9.026-5.212L23.449,46.073z"/>
			<path d="M33.38,53.232c-0.064,0-0.13-0.017-0.188-0.05l-10.847-6.258c-0.116-0.067-0.188-0.191-0.188-0.325l0.02-12.829
				c0-0.134,0.071-0.257,0.188-0.324c0.115-0.067,0.26-0.067,0.375,0l10.847,6.258c0.116,0.067,0.188,0.191,0.188,0.325
				l-0.02,12.829c0,0.134-0.071,0.257-0.188,0.324C33.509,53.216,33.444,53.232,33.38,53.232z M22.908,46.383l10.098,5.826
				l0.019-11.964L22.927,34.42L22.908,46.383z M32.477,51.66c-0.063,0-0.13-0.017-0.188-0.05l-9.027-5.212
				c-0.116-0.067-0.188-0.191-0.188-0.325l0.02-10.729c0-0.134,0.072-0.258,0.188-0.324c0.115-0.067,0.26-0.067,0.375,0l9.024,5.212
				c0.116,0.067,0.188,0.191,0.188,0.325L32.85,51.286c0,0.134-0.07,0.258-0.188,0.324C32.605,51.643,32.541,51.66,32.477,51.66z
				 M23.824,45.856l8.276,4.779l0.02-9.864l-8.277-4.779L23.824,45.856z"/>
		</g>
		<g>
			<path d="M32.964,17.205l-10.814-6.226l10.849-6.226l10.813,6.226L32.964,17.205z M23.976,10.98l8.988,5.173l9.02-5.173
				l-8.985-5.173L23.976,10.98z"/>
			<path d="M32.964,17.58c-0.064,0-0.129-0.017-0.188-0.05l-10.813-6.226c-0.116-0.067-0.188-0.191-0.188-0.325
				s0.072-0.258,0.188-0.325L32.81,4.428c0.115-0.066,0.257-0.066,0.374,0l10.813,6.226c0.116,0.067,0.188,0.191,0.188,0.326
				c0,0.134-0.072,0.258-0.188,0.325L33.15,17.53C33.093,17.563,33.028,17.58,32.964,17.58z M22.903,10.98l10.063,5.792
				l10.094-5.793L32.998,5.186L22.903,10.98z M32.964,16.527c-0.064,0-0.129-0.017-0.188-0.05l-8.986-5.173
				c-0.116-0.067-0.188-0.191-0.188-0.326c0-0.135,0.072-0.258,0.188-0.325L32.81,5.48c0.115-0.066,0.257-0.066,0.374,0l8.987,5.173
				c0.116,0.067,0.188,0.191,0.188,0.326s-0.07,0.258-0.188,0.325l-9.021,5.173C33.093,16.511,33.028,16.527,32.964,16.527z
				 M24.729,10.98l8.235,4.74l8.267-4.741l-8.232-4.74L24.729,10.98z"/>
		</g>
		<g>
			<path d="M32.489,29.241l-0.021-12.829l10.84-6.265l0.021,12.829L32.489,29.241z M33.373,16.938l0.02,10.729l9.026-5.212
				l-0.021-10.729L33.373,16.938z"/>
			<path d="M32.489,29.616c-0.064,0-0.131-0.017-0.188-0.05c-0.115-0.066-0.188-0.19-0.188-0.324l-0.021-12.829
				c0-0.134,0.071-0.258,0.188-0.325l10.84-6.265c0.113-0.067,0.258-0.067,0.375,0c0.113,0.066,0.188,0.19,0.188,0.324l0.021,12.829
				c0,0.134-0.071,0.258-0.188,0.325l-10.84,6.265C32.619,29.599,32.554,29.616,32.489,29.616z M32.845,16.628l0.021,11.963
				l10.091-5.832l-0.021-11.963L32.845,16.628z M33.393,28.043c-0.063,0-0.129-0.017-0.188-0.05
				c-0.115-0.066-0.188-0.19-0.188-0.324l-0.02-10.729c0-0.134,0.069-0.258,0.188-0.325l9.026-5.212
				c0.115-0.067,0.258-0.067,0.375,0c0.115,0.066,0.188,0.19,0.188,0.324l0.021,10.729c0,0.134-0.071,0.258-0.188,0.325
				l-9.024,5.212C33.522,28.026,33.457,28.043,33.393,28.043z M33.748,17.155l0.019,9.864l8.277-4.779l-0.021-9.864L33.748,17.155z"
				/>
		</g>
		<g>
			<path d="M33.38,29.228l-10.847-6.259l0.02-12.829l10.847,6.258L33.38,29.228z M23.449,22.443l9.025,5.212l0.021-10.729
				l-9.026-5.212L23.449,22.443z"/>
			<path d="M33.38,29.603c-0.064,0-0.13-0.017-0.188-0.05l-10.847-6.259c-0.116-0.067-0.188-0.191-0.188-0.325l0.02-12.829
				c0-0.134,0.071-0.257,0.188-0.324c0.115-0.067,0.26-0.067,0.375,0l10.847,6.258c0.116,0.067,0.188,0.191,0.188,0.325
				l-0.02,12.829c0,0.134-0.071,0.257-0.188,0.324C33.509,29.586,33.444,29.603,33.38,29.603z M22.908,22.753l10.098,5.826
				l0.019-11.964l-10.098-5.826L22.908,22.753z M32.477,28.03c-0.063,0-0.13-0.017-0.188-0.05l-9.027-5.212
				c-0.116-0.067-0.188-0.191-0.188-0.325l0.02-10.73c0-0.134,0.072-0.258,0.188-0.324c0.115-0.067,0.26-0.067,0.375,0l9.024,5.212
				c0.116,0.067,0.188,0.191,0.188,0.325L32.85,27.655c0,0.134-0.07,0.258-0.188,0.324C32.605,28.014,32.541,28.03,32.477,28.03z
				 M23.824,22.227l8.276,4.779l0.02-9.864l-8.277-4.78L23.824,22.227z"/>
		</g>
		<g>
			<path d="M32.964,28.916L22.149,22.69l10.849-6.226l10.813,6.226L32.964,28.916z M23.976,22.696l8.988,5.173l9.02-5.173
				l-8.985-5.173L23.976,22.696z"/>
			<path d="M32.964,29.291c-0.064,0-0.129-0.017-0.188-0.05l-10.813-6.226c-0.116-0.067-0.188-0.191-0.188-0.326
				c0-0.134,0.072-0.258,0.188-0.325l10.847-6.226c0.115-0.066,0.257-0.066,0.374,0l10.813,6.226
				c0.116,0.067,0.188,0.191,0.188,0.325s-0.072,0.258-0.188,0.325L33.149,29.24C33.093,29.274,33.028,29.291,32.964,29.291z
				 M22.903,22.69l10.063,5.793l10.094-5.794l-10.062-5.792L22.903,22.69z M32.964,28.245c-0.064,0-0.129-0.017-0.188-0.05
				l-8.986-5.173c-0.116-0.067-0.188-0.191-0.188-0.326c0-0.135,0.072-0.258,0.188-0.325l9.021-5.173
				c0.115-0.066,0.257-0.066,0.374,0l8.987,5.173c0.116,0.067,0.188,0.191,0.188,0.326c0,0.135-0.07,0.258-0.188,0.325l-9.021,5.173
				C33.093,28.228,33.028,28.245,32.964,28.245z M24.729,22.697l8.235,4.74l8.267-4.741l-8.232-4.74L24.729,22.697z"/>
		</g>
		<g>
			<path d="M32.489,40.958l-0.025-12.835l10.846-6.258l0.021,12.829L32.489,40.958z M33.373,28.649l0.02,10.729l9.026-5.212
				l-0.021-10.729L33.373,28.649z"/>
			<path d="M32.489,41.333c-0.064,0-0.131-0.017-0.188-0.05c-0.115-0.067-0.188-0.19-0.188-0.324l-0.025-12.835
				c0-0.134,0.071-0.259,0.188-0.326l10.848-6.258c0.114-0.067,0.258-0.067,0.375,0c0.116,0.067,0.188,0.19,0.188,0.324
				l0.021,12.829c0,0.134-0.071,0.258-0.188,0.325l-10.84,6.265C32.619,41.316,32.554,41.333,32.489,41.333z M32.839,28.339
				l0.023,11.97l10.092-5.832l-0.021-11.963L32.839,28.339z M33.393,39.754c-0.063,0-0.129-0.017-0.188-0.05
				c-0.115-0.066-0.188-0.19-0.188-0.324l-0.02-10.729c0-0.134,0.069-0.258,0.188-0.325l9.026-5.212
				c0.115-0.067,0.258-0.067,0.375,0c0.115,0.066,0.188,0.19,0.188,0.324l0.021,10.729c0,0.134-0.071,0.258-0.188,0.325
				l-9.024,5.212C33.522,39.737,33.457,39.754,33.393,39.754z M33.748,28.866l0.019,9.864l8.277-4.78l-0.021-9.864L33.748,28.866z"
				/>
		</g>
		<g>
			<path d="M33.38,40.945l-10.84-6.258l0.02-12.829l10.848,6.259L33.38,40.945z M23.449,34.16l9.025,5.212l0.021-10.73l-9.026-5.211
				L23.449,34.16z"/>
			<path d="M33.38,41.32c-0.064,0-0.13-0.017-0.188-0.05l-10.84-6.258c-0.116-0.067-0.188-0.191-0.188-0.325l0.02-12.829
				c0-0.134,0.071-0.257,0.188-0.324c0.117-0.067,0.26-0.067,0.375,0l10.846,6.259c0.116,0.067,0.188,0.191,0.188,0.326
				l-0.025,12.828c0,0.134-0.072,0.257-0.188,0.324C33.509,41.303,33.444,41.32,33.38,41.32z M22.915,34.47l10.091,5.826
				l0.024-11.963l-10.098-5.826L22.915,34.47z M32.477,39.748c-0.063,0-0.13-0.017-0.188-0.05l-9.027-5.212
				c-0.116-0.067-0.188-0.191-0.188-0.325l0.02-10.729c0-0.134,0.072-0.258,0.188-0.324c0.115-0.067,0.26-0.067,0.375,0l9.024,5.211
				c0.116,0.067,0.188,0.191,0.188,0.325l-0.021,10.73c0,0.134-0.07,0.258-0.188,0.324C32.605,39.731,32.541,39.748,32.477,39.748z
				 M23.824,33.944l8.276,4.78l0.02-9.865l-8.277-4.779L23.824,33.944z"/>
		</g>
	</g>
	<g>
		<g>
			<rect x="40.133" y="33.73" fill="#FFFFFF" width="14" height="11"/>
			<path d="M54.633,44.73h-14c-0.276,0-0.5-0.224-0.5-0.5v-11c0-0.276,0.224-0.5,0.5-0.5h14c0.276,0,0.5,0.224,0.5,0.5v11
				C55.133,44.506,54.909,44.73,54.633,44.73z M41.133,43.73h13v-10h-13V43.73z"/>
		</g>
		<g>
			<g>
				<g>
					<g>
						<defs>
							<rect id="SVGID_1_" x="38.174" y="27.637" width="18.588" height="22.642"/>
						</defs>
						<clipPath id="SVGID_2_">
							<use xlink:href="#SVGID_1_"  overflow="visible"/>
						</clipPath>
						<path clip-path="url(#SVGID_2_)" d="M47.458,27.641l-9.284,3.714v7.428c0,5.088,3.313,9.278,8.171,11.142
							c1.104,0.422,1.127,0.422,2.229,0c4.855-1.863,8.17-6.054,8.17-11.142v-7.428L47.458,27.641z M46.229,42.835l-3.455-3.486
							l1.184-1.192l2.271,2.293l5.667-5.72l1.184,1.192L46.229,42.835z"/>
					</g>
				</g>
			</g>
		</g>
	</g>
</g>
</svg>
