<?xml version="1.0" encoding="utf-8"?>
<!-- Generator: Adobe Illustrator 16.0.0, SVG Export Plug-In . SVG Version: 6.00 Build 0)  -->
<!DOCTYPE svg PUBLIC "-//W3C//DTD SVG 1.1//EN" "http://www.w3.org/Graphics/SVG/1.1/DTD/svg11.dtd">
<svg version="1.1" id="图层_1" xmlns="http://www.w3.org/2000/svg" xmlns:xlink="http://www.w3.org/1999/xlink" x="0px" y="0px"
	 width="68px" height="68px" viewBox="0 0 68 68" enable-background="new 0 0 68 68" xml:space="preserve">
<g>
	<path fill="#FFE4CC" d="M19.605,31.942"/>
	<path fill="#B6F5FF" d="M42.199,21.005h-12.29c-0.882,0-1.602-0.72-1.602-1.602v-4.698c0-0.882,0.72-1.602,1.602-1.602h12.295
		c0.882,0,1.603,0.72,1.603,1.602v4.698C43.8,20.285,43.082,21.005,42.199,21.005L42.199,21.005z"/>
	<path d="M42.199,21.805h-12.29c-1.322,0-2.402-1.073-2.402-2.402v-4.698c0-1.323,1.074-2.403,2.402-2.403h12.295
		c1.322,0,2.403,1.074,2.403,2.403v4.698C44.602,20.732,43.522,21.805,42.199,21.805L42.199,21.805z M29.909,13.91
		c-0.441,0-0.801,0.359-0.801,0.801v4.699c0,0.441,0.36,0.8,0.801,0.8h12.295c0.441,0,0.801-0.359,0.801-0.8v-4.699
		c0-0.441-0.36-0.801-0.801-0.801H29.909z"/>
	<path fill="#B6F5FF" d="M40.467,32.345c0,4.457,3.612,8.068,8.069,8.068c4.457,0,8.069-3.612,8.069-8.068
		c0-4.456-3.613-8.069-8.069-8.069C44.081,24.276,40.467,27.889,40.467,32.345L40.467,32.345z"/>
	<path d="M48.538,41.209c-4.891,0-8.864-3.979-8.864-8.863c0-4.891,3.979-8.864,8.864-8.864c4.885,0,8.863,3.979,8.863,8.864
		C57.4,37.231,53.421,41.209,48.538,41.209L48.538,41.209z M48.538,25.077c-4.01,0-7.269,3.259-7.269,7.269
		c0,4.01,3.259,7.268,7.269,7.268c4.009,0,7.268-3.258,7.268-7.268C55.804,28.336,52.541,25.077,48.538,25.077L48.538,25.077z"/>
	<rect x="46.594" y="23.717" fill="#B6F5FF" width="6.61" height="16.996"/>
	<path d="M53.205,41.513h-6.61c-0.441,0-0.801-0.36-0.801-0.8V23.717c0-0.44,0.359-0.801,0.801-0.801h6.61
		c0.441,0,0.801,0.36,0.801,0.801v16.996C54,41.153,53.646,41.513,53.205,41.513L53.205,41.513z M47.395,39.912h5.009V24.518h-5.009
		V39.912z"/>
	<g>
		<g>
			<g>
				<defs>
					<rect id="SVGID_1_" x="7.121" y="11.285" width="53.759" height="47.465"/>
				</defs>
				<clipPath id="SVGID_2_">
					<use xlink:href="#SVGID_1_"  overflow="visible"/>
				</clipPath>
				<path clip-path="url(#SVGID_2_)" fill="#FFFFFF" d="M46.364,44.964H20.662c-7.015,0-12.75-5.735-12.75-12.75
					c0-7.014,5.735-12.748,12.75-12.748h25.703c1.558,0,2.836,1.278,2.836,2.836V42.12C49.2,43.686,47.921,44.964,46.364,44.964
					L46.364,44.964z"/>
			</g>
		</g>
		<g>
			<g>
				<defs>
					<rect id="SVGID_3_" x="7.121" y="11.285" width="53.759" height="47.465"/>
				</defs>
				<clipPath id="SVGID_4_">
					<use xlink:href="#SVGID_3_"  overflow="visible"/>
				</clipPath>
				<path clip-path="url(#SVGID_4_)" d="M46.364,45.766H20.662c-3.607,0-7.002-1.416-9.571-3.979
					c-2.563-2.563-3.979-5.964-3.979-9.572c0-3.606,1.416-7,3.979-9.57c2.563-2.563,5.964-3.979,9.571-3.979h25.703
					c2.005,0,3.637,1.633,3.637,3.638v19.818C50.001,44.132,48.37,45.766,46.364,45.766L46.364,45.766z M20.662,20.267
					c-6.586,0-11.948,5.356-11.948,11.948c0,6.586,5.356,11.95,11.948,11.95h25.703c1.124,0,2.036-0.913,2.036-2.037V22.303
					c0-1.125-0.913-2.036-2.036-2.036H20.662z"/>
			</g>
		</g>
	</g>
	<rect x="21.399" y="44.964" fill="#FFFFFF" width="22.203" height="6.964"/>
	<path d="M43.603,52.73H21.399c-0.44,0-0.801-0.36-0.801-0.802v-6.964c0-0.44,0.361-0.8,0.801-0.8h22.203c0.441,0,0.8,0.36,0.8,0.8
		v6.964C44.402,52.37,44.049,52.73,43.603,52.73L43.603,52.73z M22.199,51.128h20.602v-5.37H22.199V51.128z"/>
	<path fill="#B6F5FF" d="M49.288,57.875H15.72c-1.608,0-2.924-1.315-2.924-2.923c0-1.607,1.316-2.923,2.924-2.923h33.567
		c1.608,0,2.924,1.316,2.924,2.923C52.212,56.559,50.896,57.875,49.288,57.875L49.288,57.875z"/>
	<path d="M49.288,58.675H15.72c-2.056,0-3.725-1.669-3.725-3.724c0-2.054,1.669-3.724,3.725-3.724h33.567
		c2.055,0,3.725,1.67,3.725,3.724C53.012,57.006,51.336,58.675,49.288,58.675L49.288,58.675z M15.72,52.829
		c-1.174,0-2.124,0.95-2.124,2.123c0,1.173,0.949,2.123,2.124,2.123h33.567c1.173,0,2.123-0.949,2.123-2.123
		c0-1.173-0.949-2.123-2.123-2.123H15.72z"/>
	<path d="M39.438,17.337h-6.766c-0.441,0-0.801-0.36-0.801-0.8c0-0.441,0.359-0.801,0.801-0.801h6.766c0.44,0,0.8,0.359,0.8,0.801
		C40.237,16.976,39.878,17.337,39.438,17.337L39.438,17.337z"/>
	<path d="M43.603,27.069H16.197c-0.44,0-0.801-0.359-0.801-0.8c0-0.441,0.36-0.801,0.801-0.801h27.404c0.441,0,0.8,0.359,0.8,0.801
		C44.402,26.71,44.049,27.069,43.603,27.069L43.603,27.069z"/>
	<path d="M43.603,33.258H16.197c-0.44,0-0.801-0.36-0.801-0.801s0.36-0.801,0.801-0.801h27.404c0.441,0,0.8,0.359,0.8,0.801
		C44.402,32.898,44.049,33.258,43.603,33.258L43.603,33.258z"/>
	<path d="M43.603,39.453H16.197c-0.44,0-0.801-0.36-0.801-0.801s0.36-0.801,0.801-0.801h27.404c0.441,0,0.8,0.36,0.8,0.801
		C44.402,39.092,44.049,39.453,43.603,39.453L43.603,39.453z"/>
</g>
</svg>
